<svg xmlns="http://www.w3.org/2000/svg" xmlns:xlink="http://www.w3.org/1999/xlink" width="639.178" height="525.088" viewBox="0 0 639.178 525.088">
  <defs>
    <filter id="Trazado_187220" x="323" y="0" width="316.178" height="263.945" filterUnits="userSpaceOnUse">
      <feOffset dy="3" input="SourceAlpha"/>
      <feGaussianBlur stdDeviation="3" result="blur"/>
      <feFlood flood-opacity="0.161"/>
      <feComposite operator="in" in2="blur"/>
      <feComposite in="SourceGraphic"/>
    </filter>
    <filter id="Trazado_187335" x="0" y="0" width="316.178" height="263.945" filterUnits="userSpaceOnUse">
      <feOffset dy="3" input="SourceAlpha"/>
      <feGaussianBlur stdDeviation="3" result="blur-2"/>
      <feFlood flood-opacity="0.161"/>
      <feComposite operator="in" in2="blur-2"/>
      <feComposite in="SourceGraphic"/>
    </filter>
    <filter id="Trazado_187333" x="323" y="261.143" width="316.178" height="263.945" filterUnits="userSpaceOnUse">
      <feOffset dy="3" input="SourceAlpha"/>
      <feGaussianBlur stdDeviation="3" result="blur-3"/>
      <feFlood flood-opacity="0.161"/>
      <feComposite operator="in" in2="blur-3"/>
      <feComposite in="SourceGraphic"/>
    </filter>
    <filter id="Trazado_187334" x="0" y="261.143" width="316.178" height="263.945" filterUnits="userSpaceOnUse">
      <feOffset dy="3" input="SourceAlpha"/>
      <feGaussianBlur stdDeviation="3" result="blur-4"/>
      <feFlood flood-opacity="0.161"/>
      <feComposite operator="in" in2="blur-4"/>
      <feComposite in="SourceGraphic"/>
    </filter>
    <linearGradient id="linear-gradient" x1="-1.095" y1="1.856" x2="-1.088" y2="1.856" gradientUnits="objectBoundingBox">
      <stop offset="0" stop-color="#b40f0f"/>
      <stop offset="1" stop-color="#fff"/>
    </linearGradient>
    <filter id="Trazado_187228" x="200.58" y="144.854" width="239.198" height="239.198" filterUnits="userSpaceOnUse">
      <feOffset dy="3" input="SourceAlpha"/>
      <feGaussianBlur stdDeviation="3" result="blur-5"/>
      <feFlood flood-opacity="0.161"/>
      <feComposite operator="in" in2="blur-5"/>
      <feComposite in="SourceGraphic"/>
    </filter>
    <clipPath id="clip-path">
      <rect id="Rectángulo_44488" data-name="Rectángulo 44488" width="102.997" height="86.038" fill="#fff" stroke="#fff" stroke-width="1"/>
    </clipPath>
    <clipPath id="clip-path-2">
      <rect id="Rectángulo_44489" data-name="Rectángulo 44489" width="74.439" height="74.099" fill="#fff" stroke="#fff" stroke-width="1"/>
    </clipPath>
    <clipPath id="clip-path-3">
      <rect id="Rectángulo_44490" data-name="Rectángulo 44490" width="72.828" height="72.69" fill="#fff" stroke="#fff" stroke-width="1"/>
    </clipPath>
    <clipPath id="clip-path-4">
      <rect id="Rectángulo_44491" data-name="Rectángulo 44491" width="84.874" height="77.623" fill="#fff" stroke="#fff" stroke-width="1"/>
    </clipPath>
    <clipPath id="clip-path-5">
      <rect id="Rectángulo_44492" data-name="Rectángulo 44492" width="83.451" height="105.821" fill="#fff" stroke="#fff" stroke-width="1"/>
    </clipPath>
  </defs>
  <g id="Grupo_149950" data-name="Grupo 149950" transform="translate(-480.411 -3861.146)">
    <g id="Grupo_149937" data-name="Grupo 149937" transform="translate(0 -707)">
      <g transform="matrix(1, 0, 0, 1, 480.41, 4568.15)" filter="url(#Trazado_187220)">
        <path id="Trazado_187220-2" data-name="Trazado 187220" d="M284.757,0a39.892,39.892,0,0,0-39.893,39.894v85.8A130.535,130.535,0,0,1,363.116,243.945H501.148a39.894,39.894,0,0,0,39.894-39.894V47.971A47.971,47.971,0,0,0,493.072,0Z" transform="translate(88.14 7)" fill="#9cd883" stroke="#fff" stroke-width="2"/>
      </g>
      <g transform="matrix(1, 0, 0, 1, 480.41, 4568.15)" filter="url(#Trazado_187335)">
        <path id="Trazado_187335-2" data-name="Trazado 187335" d="M501.15,0a39.892,39.892,0,0,1,39.893,39.894v85.8A130.535,130.535,0,0,0,422.791,243.945H284.758a39.894,39.894,0,0,1-39.894-39.894V47.971A47.971,47.971,0,0,1,292.835,0Z" transform="translate(-234.86 7)" fill="#2594d8" stroke="#fff" stroke-width="2"/>
      </g>
      <g transform="matrix(1, 0, 0, 1, 480.41, 4568.15)" filter="url(#Trazado_187333)">
        <path id="Trazado_187333-2" data-name="Trazado 187333" d="M284.757,243.945a39.892,39.892,0,0,1-39.893-39.894v-85.8a130.052,130.052,0,0,0,80.549-37.7A130.042,130.042,0,0,0,363.116,0H501.148a39.893,39.893,0,0,1,39.894,39.894V195.975a47.971,47.971,0,0,1-47.971,47.971Z" transform="translate(88.14 268.14)" fill="#25d8b6" stroke="#fff" stroke-width="2"/>
      </g>
      <g transform="matrix(1, 0, 0, 1, 480.41, 4568.15)" filter="url(#Trazado_187334)">
        <path id="Trazado_187334-2" data-name="Trazado 187334" d="M501.15,243.945a39.892,39.892,0,0,0,39.892-39.894v-85.8a130.052,130.052,0,0,1-80.549-37.7A130.042,130.042,0,0,1,422.791,0H284.758a39.893,39.893,0,0,0-39.894,39.894V195.975a47.971,47.971,0,0,0,47.97,47.971Z" transform="translate(-234.86 268.14)" fill="#24dbe4" stroke="#fff" stroke-width="2"/>
      </g>
      <g transform="matrix(1, 0, 0, 1, 480.41, 4568.15)" filter="url(#Trazado_187228)">
        <path id="Trazado_187228-2" data-name="Trazado 187228" d="M204.9,164.894a110.772,110.772,0,1,0,78.24-32.357,110.772,110.772,0,0,0-78.24,32.357" transform="translate(37.04 18.32)" fill="url(#linear-gradient)"/>
      </g>
      <path id="Trazado_187331" data-name="Trazado 187331" d="M210.963,170.961a107.581,107.581,0,1,0,76.07-31.509,107.58,107.58,0,0,0-76.07,31.509" transform="translate(513.839 4582.848)" fill="#25b6e5"/>
      <g id="Grupo_149936" data-name="Grupo 149936" transform="translate(0 11.409)">
        <path id="Trazado_187741" data-name="Trazado 187741" d="M12.578,14.186a5.193,5.193,0,0,1-.8,2.622A4.833,4.833,0,0,1,9.722,18.57,7,7,0,0,1,6.7,19.2a5.584,5.584,0,0,1-4.414-1.826A7.54,7.54,0,0,1,.674,12.213v-.7A8.607,8.607,0,0,1,1.4,7.853,5.513,5.513,0,0,1,3.5,5.431,5.844,5.844,0,0,1,6.66,4.576a6.129,6.129,0,0,1,4.16,1.362,5.383,5.383,0,0,1,1.787,3.755H9.189a2.547,2.547,0,0,0-.654-1.865A2.691,2.691,0,0,0,6.66,7.262a2.048,2.048,0,0,0-1.875.957,6.151,6.151,0,0,0-.625,3.057v1.006a6.806,6.806,0,0,0,.571,3.252A2.091,2.091,0,0,0,6.7,16.51a2.632,2.632,0,0,0,1.807-.557,2.363,2.363,0,0,0,.664-1.768Zm1.055-.566a6.236,6.236,0,0,1,.615-2.817,4.4,4.4,0,0,1,1.768-1.9,5.323,5.323,0,0,1,2.705-.664,4.858,4.858,0,0,1,3.74,1.47,5.64,5.64,0,0,1,1.367,4v.117a5.472,5.472,0,0,1-1.372,3.921A4.871,4.871,0,0,1,18.74,19.2a4.927,4.927,0,0,1-3.623-1.353,5.29,5.29,0,0,1-1.475-3.667Zm3.291.205a3.932,3.932,0,0,0,.459,2.148,1.529,1.529,0,0,0,1.357.684q1.758,0,1.8-2.705v-.332q0-2.842-1.816-2.842-1.65,0-1.787,2.451ZM28.389,8.434l.107,1.24a3.633,3.633,0,0,1,3.018-1.436A2.675,2.675,0,0,1,34.219,9.83a3.516,3.516,0,0,1,3.105-1.592q3.213,0,3.3,3.887V19h-3.3V12.33a2.014,2.014,0,0,0-.273-1.182,1.164,1.164,0,0,0-1-.371,1.559,1.559,0,0,0-1.455.869l.01.137V19h-3.3V12.35a2.117,2.117,0,0,0-.264-1.2,1.161,1.161,0,0,0-1.006-.371,1.578,1.578,0,0,0-1.445.869V19H25.3V8.434Zm23.926,5.361a6.372,6.372,0,0,1-1.108,3.931,3.554,3.554,0,0,1-2.993,1.47,3.046,3.046,0,0,1-2.393-1.064v4.932H42.529V8.434h3.076l.1.977a3.046,3.046,0,0,1,2.49-1.172,3.582,3.582,0,0,1,3.037,1.44,6.45,6.45,0,0,1,1.084,3.96Zm-3.291-.205q0-2.812-1.641-2.812a1.549,1.549,0,0,0-1.562.84v4.16a1.6,1.6,0,0,0,1.582.879q1.572,0,1.621-2.715ZM58.877,19.2a5.432,5.432,0,0,1-3.936-1.45,5.008,5.008,0,0,1-1.5-3.774V13.7a6.489,6.489,0,0,1,.6-2.861,4.395,4.395,0,0,1,1.753-1.919,5.292,5.292,0,0,1,2.734-.679A4.574,4.574,0,0,1,62.041,9.62a5.43,5.43,0,0,1,1.289,3.853v1.279H56.787a2.372,2.372,0,0,0,.771,1.4,2.3,2.3,0,0,0,1.543.508,2.958,2.958,0,0,0,2.441-1.094l1.5,1.777A4.2,4.2,0,0,1,61.3,18.692,5.891,5.891,0,0,1,58.877,19.2Zm-.371-8.418q-1.445,0-1.719,1.914h3.32v-.254a1.63,1.63,0,0,0-.4-1.226A1.593,1.593,0,0,0,58.506,10.777Zm9.98-4.971V8.434h1.738v2.285H68.486v4.834a1.234,1.234,0,0,0,.215.83,1.152,1.152,0,0,0,.85.234,4.828,4.828,0,0,0,.82-.059v2.354a6.074,6.074,0,0,1-1.855.283,3.448,3.448,0,0,1-2.51-.8,3.282,3.282,0,0,1-.811-2.432V10.719H63.848V8.434H65.2V5.807ZM74.99,19h-3.3V8.434h3.3Zm-3.5-13.3A1.482,1.482,0,0,1,72,4.54a2.149,2.149,0,0,1,2.637,0A1.482,1.482,0,0,1,75.146,5.7a1.482,1.482,0,0,1-.508,1.159,2.149,2.149,0,0,1-2.637,0A1.482,1.482,0,0,1,71.494,5.7Zm9.355.107V8.434h1.738v2.285H80.85v4.834a1.234,1.234,0,0,0,.215.83,1.152,1.152,0,0,0,.85.234,4.828,4.828,0,0,0,.82-.059v2.354a6.074,6.074,0,0,1-1.855.283,3.448,3.448,0,0,1-2.51-.8,3.282,3.282,0,0,1-.811-2.432V10.719H76.211V8.434h1.348V5.807ZM87.354,19h-3.3V8.434h3.3Zm-3.5-13.3a1.482,1.482,0,0,1,.508-1.159A2.149,2.149,0,0,1,87,4.54,1.482,1.482,0,0,1,87.51,5.7,1.482,1.482,0,0,1,87,6.859a2.149,2.149,0,0,1-2.637,0A1.482,1.482,0,0,1,83.857,5.7Zm9.736,9.385,1.67-6.65H98.73L95.283,19H91.924L88.477,8.434h3.477Zm5.557-1.465a6.236,6.236,0,0,1,.615-2.817,4.4,4.4,0,0,1,1.768-1.9,5.323,5.323,0,0,1,2.705-.664,4.858,4.858,0,0,1,3.74,1.47,5.64,5.64,0,0,1,1.367,4v.117a5.472,5.472,0,0,1-1.372,3.921,4.871,4.871,0,0,1-3.716,1.45,4.927,4.927,0,0,1-3.623-1.353,5.29,5.29,0,0,1-1.475-3.667Zm3.291.205a3.932,3.932,0,0,0,.459,2.148,1.529,1.529,0,0,0,1.357.684q1.758,0,1.8-2.705v-.332q0-2.842-1.816-2.842-1.65,0-1.787,2.451ZM1.172,38.219a14.924,14.924,0,0,1,.635-4.434A10.7,10.7,0,0,1,3.56,30.309a6.225,6.225,0,0,1,2.485-1.992l.625,1.621a6.367,6.367,0,0,0-2.114,3.14,15.313,15.313,0,0,0-.757,5v.43a15.612,15.612,0,0,0,.747,5.1A6.34,6.34,0,0,0,6.67,46.773l-.625,1.621a6.163,6.163,0,0,1-2.485-2,10.538,10.538,0,0,1-1.753-3.462,15,15,0,0,1-.635-4.277Zm10.391,3.145h5.967V44H8.135V29.781h3.428Zm6.846-2.744a6.236,6.236,0,0,1,.615-2.817,4.4,4.4,0,0,1,1.768-1.9,5.323,5.323,0,0,1,2.705-.664,4.858,4.858,0,0,1,3.74,1.47,5.64,5.64,0,0,1,1.367,4v.117a5.472,5.472,0,0,1-1.372,3.921,4.871,4.871,0,0,1-3.716,1.45,4.927,4.927,0,0,1-3.623-1.353,5.29,5.29,0,0,1-1.475-3.667Zm3.291.205a3.932,3.932,0,0,0,.459,2.148,1.529,1.529,0,0,0,1.357.684q1.758,0,1.8-2.705v-.332q0-2.842-1.816-2.842-1.65,0-1.787,2.451Zm18.164-.02A6.44,6.44,0,0,1,38.789,42.8a3.6,3.6,0,0,1-3.027,1.4,3.122,3.122,0,0,1-2.6-1.279L33.027,44H30.078V29h3.291v5.283a3.013,3.013,0,0,1,2.373-1.045,3.6,3.6,0,0,1,3.047,1.416,6.473,6.473,0,0,1,1.074,3.984Zm-3.3-.21a4.3,4.3,0,0,0-.405-2.169,1.366,1.366,0,0,0-1.245-.648,1.576,1.576,0,0,0-1.543.848v4.192a1.585,1.585,0,0,0,1.563.838,1.4,1.4,0,0,0,1.475-1.131A8.121,8.121,0,0,0,36.563,38.595Zm4.336.024a6.236,6.236,0,0,1,.615-2.817,4.4,4.4,0,0,1,1.768-1.9,5.323,5.323,0,0,1,2.705-.664,4.858,4.858,0,0,1,3.74,1.47,5.64,5.64,0,0,1,1.367,4v.117a5.472,5.472,0,0,1-1.372,3.921,4.871,4.871,0,0,1-3.716,1.45,4.927,4.927,0,0,1-3.623-1.353,5.29,5.29,0,0,1-1.475-3.667Zm3.291.205a3.932,3.932,0,0,0,.459,2.148,1.529,1.529,0,0,0,1.357.684q1.758,0,1.8-2.705v-.332q0-2.842-1.816-2.842-1.65,0-1.787,2.451Zm13.545-.332a13.925,13.925,0,0,1-.674,4.355,11.12,11.12,0,0,1-1.86,3.54,6.193,6.193,0,0,1-2.563,2.007l-.625-1.621a6.43,6.43,0,0,0,2.1-3.125,15.085,15.085,0,0,0,.771-4.854v-.6a15.612,15.612,0,0,0-.747-5.1,6.34,6.34,0,0,0-2.124-3.164l.625-1.621A6.307,6.307,0,0,1,55.181,30.3a10.984,10.984,0,0,1,1.855,3.486,13.807,13.807,0,0,1,.7,4.272Z" transform="translate(518.079 4611.433)" fill="#8fd4fe"/>
        <path id="Trazado_187742" data-name="Trazado 187742" d="M9.893,12.965H4.5v3.4h6.367V19H1.074V4.781h9.814V7.428H4.5v3H9.893Zm6.182,2.119,1.67-6.65h3.467L17.764,19H14.4L10.957,8.434h3.477ZM28,19a3.716,3.716,0,0,1-.312-.947A3.06,3.06,0,0,1,25.146,19.2a3.749,3.749,0,0,1-2.539-.9,2.875,2.875,0,0,1-1.045-2.271,2.955,2.955,0,0,1,1.27-2.6,6.468,6.468,0,0,1,3.691-.879h1.016v-.559q0-1.462-1.26-1.462a1.03,1.03,0,0,0-1.172,1.158H21.816a2.95,2.95,0,0,1,1.3-2.487,5.479,5.479,0,0,1,3.325-.956,4.8,4.8,0,0,1,3.193.986,3.429,3.429,0,0,1,1.2,2.705v4.678a4.79,4.79,0,0,0,.449,2.227V19Zm-2.061-2.148a1.836,1.836,0,0,0,1.021-.264,1.653,1.653,0,0,0,.581-.6V14.3h-.957q-1.719,0-1.719,1.543a.942.942,0,0,0,.3.728A1.1,1.1,0,0,0,25.938,16.852Zm12.256-.82a.76.76,0,0,0-.439-.674,6.685,6.685,0,0,0-1.67-.527,7.615,7.615,0,0,1-2.031-.718,3.4,3.4,0,0,1-1.221-1.079,2.577,2.577,0,0,1-.42-1.455,2.92,2.92,0,0,1,1.2-2.4,4.948,4.948,0,0,1,3.145-.942,5.482,5.482,0,0,1,3.359.947,2.962,2.962,0,0,1,1.27,2.49h-3.3q0-1.27-1.338-1.27a1.326,1.326,0,0,0-.869.288.892.892,0,0,0-.352.718.819.819,0,0,0,.43.713,4.06,4.06,0,0,0,1.372.449,11.857,11.857,0,0,1,1.655.42,3.007,3.007,0,0,1,2.383,2.939,2.767,2.767,0,0,1-1.284,2.354,5.632,5.632,0,0,1-3.325.908,5.747,5.747,0,0,1-2.422-.488,4.05,4.05,0,0,1-1.66-1.328,3.007,3.007,0,0,1-.6-1.768h3.076a1.272,1.272,0,0,0,.488,1.069,2.009,2.009,0,0,0,1.2.337,1.58,1.58,0,0,0,1.011-.273A.875.875,0,0,0,38.193,16.031ZM46.377,19h-3.3V8.434h3.3Zm-3.5-13.3a1.482,1.482,0,0,1,.508-1.159,2.149,2.149,0,0,1,2.637,0A1.482,1.482,0,0,1,46.533,5.7a1.482,1.482,0,0,1-.508,1.159,2.149,2.149,0,0,1-2.637,0A1.482,1.482,0,0,1,42.881,5.7Zm9.736,9.385,1.67-6.65h3.467L54.307,19H50.947L47.5,8.434h3.477Zm5.557-1.465a6.236,6.236,0,0,1,.615-2.817,4.4,4.4,0,0,1,1.768-1.9,5.323,5.323,0,0,1,2.705-.664A4.858,4.858,0,0,1,67,9.708a5.64,5.64,0,0,1,1.367,4v.117A5.472,5.472,0,0,1,67,17.745a4.871,4.871,0,0,1-3.716,1.45,4.927,4.927,0,0,1-3.623-1.353,5.29,5.29,0,0,1-1.475-3.667Zm3.291.205a3.932,3.932,0,0,0,.459,2.148,1.529,1.529,0,0,0,1.357.684q1.758,0,1.8-2.705v-.332q0-2.842-1.816-2.842-1.65,0-1.787,2.451ZM1.172,38.219a14.924,14.924,0,0,1,.635-4.434A10.7,10.7,0,0,1,3.56,30.309a6.225,6.225,0,0,1,2.485-1.992l.625,1.621a6.367,6.367,0,0,0-2.114,3.14,15.313,15.313,0,0,0-.757,5v.43a15.612,15.612,0,0,0,.747,5.1A6.34,6.34,0,0,0,6.67,46.773l-.625,1.621a6.163,6.163,0,0,1-2.485-2,10.538,10.538,0,0,1-1.753-3.462,15,15,0,0,1-.635-4.277Zm15.039,3.125h-4.7L10.693,44H7.031l5.215-14.219h3.223L20.723,44H17.041ZM12.334,38.7h3.057l-1.533-4.932Zm13,1.387L27,33.434h3.467L27.021,44H23.662L20.215,33.434h3.477Zm11.1,4.111a5.432,5.432,0,0,1-3.936-1.45A5.008,5.008,0,0,1,31,38.971V38.7a6.489,6.489,0,0,1,.6-2.861,4.395,4.395,0,0,1,1.753-1.919,5.292,5.292,0,0,1,2.734-.679A4.574,4.574,0,0,1,39.6,34.62a5.43,5.43,0,0,1,1.289,3.853v1.279H34.346a2.372,2.372,0,0,0,.771,1.4,2.3,2.3,0,0,0,1.543.508A2.958,2.958,0,0,0,39.1,40.563l1.5,1.777a4.2,4.2,0,0,1-1.743,1.353A5.891,5.891,0,0,1,36.436,44.2Zm-.371-8.418q-1.445,0-1.719,1.914h3.32v-.254a1.63,1.63,0,0,0-.4-1.226A1.593,1.593,0,0,0,36.064,35.777Zm11.68,5.254a.76.76,0,0,0-.439-.674,6.685,6.685,0,0,0-1.67-.527,7.615,7.615,0,0,1-2.031-.718,3.4,3.4,0,0,1-1.221-1.079,2.577,2.577,0,0,1-.42-1.455,2.92,2.92,0,0,1,1.2-2.4,4.948,4.948,0,0,1,3.145-.942,5.482,5.482,0,0,1,3.359.947,2.962,2.962,0,0,1,1.27,2.49h-3.3q0-1.27-1.338-1.27a1.326,1.326,0,0,0-.869.288.892.892,0,0,0-.352.718.819.819,0,0,0,.43.713,4.06,4.06,0,0,0,1.372.449,11.857,11.857,0,0,1,1.655.42,3.007,3.007,0,0,1,2.383,2.939,2.767,2.767,0,0,1-1.284,2.354,5.632,5.632,0,0,1-3.325.908,5.747,5.747,0,0,1-2.422-.488,4.05,4.05,0,0,1-1.66-1.328,3.007,3.007,0,0,1-.6-1.768h3.076a1.272,1.272,0,0,0,.488,1.069,2.009,2.009,0,0,0,1.2.337,1.58,1.58,0,0,0,1.011-.273A.875.875,0,0,0,47.744,41.031Zm8.545-10.225v2.627h1.738v2.285H56.289v4.834a1.234,1.234,0,0,0,.215.83,1.152,1.152,0,0,0,.85.234,4.828,4.828,0,0,0,.82-.059v2.354a6.074,6.074,0,0,1-1.855.283,3.448,3.448,0,0,1-2.51-.8A3.282,3.282,0,0,1,53,40.963V35.719H51.65V33.434H53V30.807Zm9.424,5.605-1.084-.078a1.947,1.947,0,0,0-1.992.977V44H59.346V33.434h3.086l.107,1.357a2.548,2.548,0,0,1,2.314-1.553,3.209,3.209,0,0,1,.918.117Zm7.48,6.445A3.393,3.393,0,0,1,70.371,44.2a3.328,3.328,0,0,1-2.632-1.011,4.251,4.251,0,0,1-.894-2.905V33.434h3.291V40.3a1.183,1.183,0,0,0,1.318,1.357,1.72,1.72,0,0,0,1.611-.811V33.434h3.311V44H73.291Zm8.867-1.4h4.814V44H77.9V42.164l4.688-6.191H78.105V33.434h8.662v1.777Zm11.6-2.969a13.925,13.925,0,0,1-.674,4.355,11.12,11.12,0,0,1-1.86,3.54,6.193,6.193,0,0,1-2.563,2.007l-.625-1.621a6.43,6.43,0,0,0,2.1-3.125,15.085,15.085,0,0,0,.771-4.854v-.6a15.612,15.612,0,0,0-.747-5.1,6.34,6.34,0,0,0-2.124-3.164l.625-1.621A6.307,6.307,0,0,1,91.108,30.3a10.984,10.984,0,0,1,1.855,3.486,13.807,13.807,0,0,1,.7,4.272Z" transform="translate(524.079 4990.88)" fill="#c1fcff"/>
        <path id="Trazado_187740" data-name="Trazado 187740" d="M148.537,14.186a5.193,5.193,0,0,1-.8,2.622,4.833,4.833,0,0,1-2.056,1.763,7,7,0,0,1-3.022.625,5.584,5.584,0,0,1-4.414-1.826,7.54,7.54,0,0,1-1.611-5.156v-.7a8.607,8.607,0,0,1,.728-3.657,5.513,5.513,0,0,1,2.095-2.422,5.844,5.844,0,0,1,3.164-.854,6.129,6.129,0,0,1,4.16,1.362,5.383,5.383,0,0,1,1.787,3.755h-3.418a2.547,2.547,0,0,0-.654-1.865,2.691,2.691,0,0,0-1.875-.566,2.048,2.048,0,0,0-1.875.957,6.151,6.151,0,0,0-.625,3.057v1.006a6.806,6.806,0,0,0,.571,3.252,2.091,2.091,0,0,0,1.968.977,2.632,2.632,0,0,0,1.807-.557,2.363,2.363,0,0,0,.664-1.768Zm1.055-.566a6.236,6.236,0,0,1,.615-2.817,4.4,4.4,0,0,1,1.768-1.9,5.323,5.323,0,0,1,2.705-.664,4.858,4.858,0,0,1,3.74,1.47,5.64,5.64,0,0,1,1.367,4v.117a5.472,5.472,0,0,1-1.372,3.921A4.871,4.871,0,0,1,154.7,19.2a4.927,4.927,0,0,1-3.623-1.353,5.29,5.29,0,0,1-1.475-3.667Zm3.291.205a3.932,3.932,0,0,0,.459,2.148,1.529,1.529,0,0,0,1.357.684q1.758,0,1.8-2.705v-.332q0-2.842-1.816-2.842-1.65,0-1.787,2.451ZM164.709,19h-3.3V4h3.3Zm7.979,0a3.716,3.716,0,0,1-.312-.947,3.06,3.06,0,0,1-2.539,1.143,3.749,3.749,0,0,1-2.539-.9,2.875,2.875,0,0,1-1.045-2.271,2.955,2.955,0,0,1,1.27-2.6,6.468,6.468,0,0,1,3.691-.879h1.016v-.559q0-1.462-1.26-1.462a1.03,1.03,0,0,0-1.172,1.158h-3.291a2.95,2.95,0,0,1,1.3-2.487,5.479,5.479,0,0,1,3.325-.956,4.8,4.8,0,0,1,3.193.986,3.429,3.429,0,0,1,1.2,2.705v4.678a4.79,4.79,0,0,0,.449,2.227V19Zm-2.061-2.148a1.836,1.836,0,0,0,1.021-.264,1.653,1.653,0,0,0,.581-.6V14.3h-.957q-1.719,0-1.719,1.543a.942.942,0,0,0,.3.728A1.1,1.1,0,0,0,170.627,16.852ZM187.16,13.8a6.44,6.44,0,0,1-1.074,3.994,3.6,3.6,0,0,1-3.027,1.4,3.122,3.122,0,0,1-2.6-1.279L180.324,19h-2.949V4h3.291V9.283a3.013,3.013,0,0,1,2.373-1.045,3.6,3.6,0,0,1,3.047,1.416,6.473,6.473,0,0,1,1.074,3.984Zm-3.3-.21a4.3,4.3,0,0,0-.405-2.169,1.366,1.366,0,0,0-1.245-.648,1.576,1.576,0,0,0-1.543.848v4.192a1.585,1.585,0,0,0,1.563.838,1.4,1.4,0,0,0,1.475-1.131A8.121,8.121,0,0,0,183.859,13.595Zm4.336.024a6.236,6.236,0,0,1,.615-2.817,4.4,4.4,0,0,1,1.768-1.9,5.323,5.323,0,0,1,2.705-.664,4.858,4.858,0,0,1,3.74,1.47,5.64,5.64,0,0,1,1.367,4v.117a5.472,5.472,0,0,1-1.372,3.921A4.871,4.871,0,0,1,193.3,19.2a4.927,4.927,0,0,1-3.623-1.353,5.29,5.29,0,0,1-1.475-3.667Zm3.291.205a3.932,3.932,0,0,0,.459,2.148,1.529,1.529,0,0,0,1.357.684q1.758,0,1.8-2.705v-.332q0-2.842-1.816-2.842-1.65,0-1.787,2.451Zm14.746-2.412-1.084-.078a1.947,1.947,0,0,0-1.992.977V19h-3.291V8.434h3.086l.107,1.357a2.548,2.548,0,0,1,2.314-1.553,3.209,3.209,0,0,1,.918.117ZM213.078,19a3.716,3.716,0,0,1-.312-.947,3.06,3.06,0,0,1-2.539,1.143,3.749,3.749,0,0,1-2.539-.9,2.875,2.875,0,0,1-1.045-2.271,2.955,2.955,0,0,1,1.27-2.6,6.468,6.468,0,0,1,3.691-.879h1.016v-.559q0-1.462-1.26-1.462a1.03,1.03,0,0,0-1.172,1.158H206.9a2.95,2.95,0,0,1,1.3-2.487,5.479,5.479,0,0,1,3.325-.956,4.8,4.8,0,0,1,3.193.986,3.429,3.429,0,0,1,1.2,2.705v4.678a4.79,4.79,0,0,0,.449,2.227V19Zm-2.061-2.148a1.836,1.836,0,0,0,1.021-.264,1.653,1.653,0,0,0,.581-.6V14.3h-.957q-1.719,0-1.719,1.543a.942.942,0,0,0,.3.728A1.1,1.1,0,0,0,211.018,16.852ZM221.574,5.807V8.434h1.738v2.285h-1.738v4.834a1.234,1.234,0,0,0,.215.83,1.152,1.152,0,0,0,.85.234,4.828,4.828,0,0,0,.82-.059v2.354a6.074,6.074,0,0,1-1.855.283,3.448,3.448,0,0,1-2.51-.8,3.282,3.282,0,0,1-.811-2.432V10.719h-1.348V8.434h1.348V5.807ZM228.078,19h-3.3V8.434h3.3Zm-3.5-13.3a1.482,1.482,0,0,1,.508-1.159,2.149,2.149,0,0,1,2.637,0,1.482,1.482,0,0,1,.508,1.159,1.482,1.482,0,0,1-.508,1.159,2.149,2.149,0,0,1-2.637,0A1.482,1.482,0,0,1,224.582,5.7Zm9.736,9.385,1.67-6.65h3.467L236.008,19h-3.359L229.2,8.434h3.477Zm5.557-1.465a6.236,6.236,0,0,1,.615-2.817,4.4,4.4,0,0,1,1.768-1.9,5.323,5.323,0,0,1,2.705-.664,4.858,4.858,0,0,1,3.74,1.47,5.64,5.64,0,0,1,1.367,4v.117a5.472,5.472,0,0,1-1.372,3.921,4.871,4.871,0,0,1-3.716,1.45,4.927,4.927,0,0,1-3.623-1.353,5.29,5.29,0,0,1-1.475-3.667Zm3.291.205a3.932,3.932,0,0,0,.459,2.148,1.529,1.529,0,0,0,1.357.684q1.758,0,1.8-2.705v-.332q0-2.842-1.816-2.842-1.65,0-1.787,2.451ZM174.514,38.219a14.924,14.924,0,0,1,.635-4.434,10.7,10.7,0,0,1,1.753-3.477,6.225,6.225,0,0,1,2.485-1.992l.625,1.621a6.367,6.367,0,0,0-2.114,3.14,15.313,15.313,0,0,0-.757,5v.43a15.612,15.612,0,0,0,.747,5.1,6.34,6.34,0,0,0,2.124,3.164l-.625,1.621a6.163,6.163,0,0,1-2.485-2,10.538,10.538,0,0,1-1.753-3.462,15,15,0,0,1-.635-4.277Zm18.467.967a5.193,5.193,0,0,1-.8,2.622,4.833,4.833,0,0,1-2.056,1.763,7,7,0,0,1-3.022.625,5.584,5.584,0,0,1-4.414-1.826,7.54,7.54,0,0,1-1.611-5.156v-.7a8.607,8.607,0,0,1,.728-3.657,5.513,5.513,0,0,1,2.095-2.422,5.844,5.844,0,0,1,3.164-.854,6.129,6.129,0,0,1,4.16,1.362,5.383,5.383,0,0,1,1.787,3.755h-3.418a2.547,2.547,0,0,0-.654-1.865,2.691,2.691,0,0,0-1.875-.566,2.048,2.048,0,0,0-1.875.957,6.151,6.151,0,0,0-.625,3.057v1.006a6.806,6.806,0,0,0,.571,3.252,2.091,2.091,0,0,0,1.968.977,2.632,2.632,0,0,0,1.807-.557,2.363,2.363,0,0,0,.664-1.768Zm1.055-.566a6.236,6.236,0,0,1,.615-2.817,4.4,4.4,0,0,1,1.768-1.9,5.323,5.323,0,0,1,2.705-.664,4.858,4.858,0,0,1,3.74,1.47,5.64,5.64,0,0,1,1.367,4v.117a5.472,5.472,0,0,1-1.372,3.921,4.871,4.871,0,0,1-3.716,1.45,4.927,4.927,0,0,1-3.623-1.353,5.29,5.29,0,0,1-1.475-3.667Zm3.291.205a3.932,3.932,0,0,0,.459,2.148,1.529,1.529,0,0,0,1.357.684q1.758,0,1.8-2.705v-.332q0-2.842-1.816-2.842-1.65,0-1.787,2.451ZM208.7,33.434l.107,1.24a3.583,3.583,0,0,1,3.018-1.436,3.015,3.015,0,0,1,2.466.986,4.7,4.7,0,0,1,.845,2.969V44h-3.3V37.33a1.783,1.783,0,0,0-.322-1.177,1.491,1.491,0,0,0-1.172-.376,1.569,1.569,0,0,0-1.436.762V44h-3.291V33.434ZM222.072,44.2a5.432,5.432,0,0,1-3.936-1.45,5.008,5.008,0,0,1-1.5-3.774V38.7a6.489,6.489,0,0,1,.6-2.861,4.395,4.395,0,0,1,1.753-1.919,5.292,5.292,0,0,1,2.734-.679,4.574,4.574,0,0,1,3.516,1.382,5.43,5.43,0,0,1,1.289,3.853v1.279h-6.543a2.372,2.372,0,0,0,.771,1.4,2.3,2.3,0,0,0,1.543.508,2.958,2.958,0,0,0,2.441-1.094l1.5,1.777a4.2,4.2,0,0,1-1.743,1.353A5.891,5.891,0,0,1,222.072,44.2Zm-.371-8.418q-1.445,0-1.719,1.914h3.32v-.254a1.63,1.63,0,0,0-.4-1.226A1.593,1.593,0,0,0,221.7,35.777Zm9.688-2.344V44.361a3.836,3.836,0,0,1-1.074,2.891,4.127,4.127,0,0,1-2.969,1.016,7.009,7.009,0,0,1-1.553-.166v-2.49a6.3,6.3,0,0,0,.928.088,1.2,1.2,0,0,0,1.367-1.357V33.434ZM227.844,30.7a1.482,1.482,0,0,1,.508-1.159,2.149,2.149,0,0,1,2.637,0,1.577,1.577,0,0,1,0,2.319,2.149,2.149,0,0,1-2.637,0A1.482,1.482,0,0,1,227.844,30.7Zm4.99,7.92a6.236,6.236,0,0,1,.615-2.817,4.4,4.4,0,0,1,1.768-1.9,5.323,5.323,0,0,1,2.705-.664,4.858,4.858,0,0,1,3.74,1.47,5.64,5.64,0,0,1,1.367,4v.117a5.472,5.472,0,0,1-1.372,3.921,4.871,4.871,0,0,1-3.716,1.45,4.927,4.927,0,0,1-3.623-1.353,5.29,5.29,0,0,1-1.475-3.667Zm3.291.205a3.932,3.932,0,0,0,.459,2.148,1.529,1.529,0,0,0,1.357.684q1.758,0,1.8-2.705v-.332q0-2.842-1.816-2.842-1.65,0-1.787,2.451Zm13.545-.332A13.925,13.925,0,0,1,249,42.848a11.12,11.12,0,0,1-1.86,3.54,6.193,6.193,0,0,1-2.563,2.007l-.625-1.621a6.43,6.43,0,0,0,2.1-3.125,15.085,15.085,0,0,0,.771-4.854v-.6a15.612,15.612,0,0,0-.747-5.1,6.34,6.34,0,0,0-2.124-3.164l.625-1.621a6.307,6.307,0,0,1,2.544,1.987,10.984,10.984,0,0,1,1.855,3.486,13.807,13.807,0,0,1,.7,4.272Z" transform="translate(830.991 4609.88)" fill="#ceffb9"/>
        <path id="Trazado_187744" data-name="Trazado 187744" d="M68.631,12.965H63.241v3.4h6.367V19H59.813V4.781h9.814V7.428H63.241v3h5.391Zm1.621.645a6.343,6.343,0,0,1,1.094-3.945,3.592,3.592,0,0,1,3.018-1.426,3.068,3.068,0,0,1,2.6,1.328L77.2,8.434h2.852V23.063h-3.3V18.121a3.063,3.063,0,0,1-2.4,1.074,3.561,3.561,0,0,1-2.983-1.45A6.7,6.7,0,0,1,70.252,13.609Zm3.291.205q0,2.842,1.641,2.842a1.589,1.589,0,0,0,1.563-.859v-4.18a1.555,1.555,0,0,0-1.543-.84q-1.533,0-1.65,2.451ZM88.2,17.857A3.393,3.393,0,0,1,85.379,19.2a3.328,3.328,0,0,1-2.632-1.011,4.251,4.251,0,0,1-.894-2.905V8.434h3.291V15.3a1.183,1.183,0,0,0,1.318,1.357,1.72,1.72,0,0,0,1.611-.811V8.434h3.311V19H88.3ZM96.659,19h-3.3V8.434h3.3Zm-3.5-13.3A1.482,1.482,0,0,1,93.67,4.54a2.149,2.149,0,0,1,2.637,0A1.482,1.482,0,0,1,96.815,5.7a1.482,1.482,0,0,1-.508,1.159,2.149,2.149,0,0,1-2.637,0A1.482,1.482,0,0,1,93.163,5.7Zm9.355.107V8.434h1.738v2.285h-1.738v4.834a1.234,1.234,0,0,0,.215.83,1.152,1.152,0,0,0,.85.234,4.828,4.828,0,0,0,.82-.059v2.354a6.074,6.074,0,0,1-1.855.283,3.448,3.448,0,0,1-2.51-.8,3.282,3.282,0,0,1-.811-2.432V10.719H97.879V8.434h1.348V5.807ZM111.5,19a3.716,3.716,0,0,1-.312-.947,3.06,3.06,0,0,1-2.539,1.143,3.749,3.749,0,0,1-2.539-.9,2.875,2.875,0,0,1-1.045-2.271,2.955,2.955,0,0,1,1.27-2.6,6.468,6.468,0,0,1,3.691-.879h1.016v-.559q0-1.462-1.26-1.462a1.03,1.03,0,0,0-1.172,1.158h-3.291a2.95,2.95,0,0,1,1.3-2.487,5.479,5.479,0,0,1,3.325-.956,4.8,4.8,0,0,1,3.193.986,3.429,3.429,0,0,1,1.2,2.705v4.678a4.79,4.79,0,0,0,.449,2.227V19Zm-2.061-2.148a1.836,1.836,0,0,0,1.021-.264,1.653,1.653,0,0,0,.581-.6V14.3h-.957q-1.719,0-1.719,1.543a.942.942,0,0,0,.3.728A1.1,1.1,0,0,0,109.442,16.852ZM120,5.807V8.434h1.738v2.285H120v4.834a1.234,1.234,0,0,0,.215.83,1.152,1.152,0,0,0,.85.234,4.828,4.828,0,0,0,.82-.059v2.354a6.074,6.074,0,0,1-1.855.283,3.448,3.448,0,0,1-2.51-.8,3.282,3.282,0,0,1-.811-2.432V10.719H115.36V8.434h1.348V5.807ZM126.5,19h-3.3V8.434h3.3Zm-3.5-13.3a1.482,1.482,0,0,1,.508-1.159,2.149,2.149,0,0,1,2.637,0,1.482,1.482,0,0,1,.508,1.159,1.482,1.482,0,0,1-.508,1.159,2.149,2.149,0,0,1-2.637,0A1.482,1.482,0,0,1,123.006,5.7Zm9.736,9.385,1.67-6.65h3.467L134.432,19h-3.359L127.625,8.434H131.1Zm5.557-1.465a6.236,6.236,0,0,1,.615-2.817,4.4,4.4,0,0,1,1.768-1.9,5.323,5.323,0,0,1,2.705-.664,4.858,4.858,0,0,1,3.74,1.47,5.64,5.64,0,0,1,1.367,4v.117a5.472,5.472,0,0,1-1.372,3.921,4.871,4.871,0,0,1-3.716,1.45,4.927,4.927,0,0,1-3.623-1.353,5.29,5.29,0,0,1-1.475-3.667Zm3.291.205a3.932,3.932,0,0,0,.459,2.148,1.529,1.529,0,0,0,1.357.684q1.758,0,1.8-2.705v-.332q0-2.842-1.816-2.842-1.65,0-1.787,2.451ZM74.652,38.219a14.924,14.924,0,0,1,.635-4.434,10.7,10.7,0,0,1,1.753-3.477,6.225,6.225,0,0,1,2.485-1.992l.625,1.621a6.367,6.367,0,0,0-2.114,3.14,15.313,15.313,0,0,0-.757,5v.43a15.612,15.612,0,0,0,.747,5.1,6.34,6.34,0,0,0,2.124,3.164l-.625,1.621a6.163,6.163,0,0,1-2.485-2,10.538,10.538,0,0,1-1.753-3.462,15,15,0,0,1-.635-4.277ZM81.615,44V29.781h5.107A7.232,7.232,0,0,1,90.9,30.787a3.347,3.347,0,0,1,1.431,2.92,3.383,3.383,0,0,1-.508,1.885,2.959,2.959,0,0,1-1.494,1.152,3,3,0,0,1,1.709,1.094,3.18,3.18,0,0,1,.6,1.953,3.765,3.765,0,0,1-1.323,3.14A6.3,6.3,0,0,1,87.386,44Zm3.428-6.045v3.408h2.246a2.136,2.136,0,0,0,1.426-.425,1.487,1.487,0,0,0,.5-1.2,1.576,1.576,0,0,0-1.768-1.787Zm0-2.246H86.83a2.539,2.539,0,0,0,1.6-.411,1.46,1.46,0,0,0,.479-1.185,1.533,1.533,0,0,0-.518-1.3,2.77,2.77,0,0,0-1.67-.4h-1.68Zm15.615,7.148A3.393,3.393,0,0,1,97.835,44.2,3.328,3.328,0,0,1,95.2,43.185a4.251,4.251,0,0,1-.894-2.905V33.434H97.6V40.3a1.183,1.183,0,0,0,1.318,1.357,1.72,1.72,0,0,0,1.611-.811V33.434h3.311V44h-3.086Zm8.2-8.291a3.612,3.612,0,0,1,5.332-.293,4.651,4.651,0,0,1,.908,3.057V44h-3.3V37.408a1.86,1.86,0,0,0-.342-1.235,1.469,1.469,0,0,0-1.162-.4,1.582,1.582,0,0,0-1.436.645V44H105.57V29h3.291Zm7.656,4.053a6.236,6.236,0,0,1,.615-2.817,4.4,4.4,0,0,1,1.768-1.9,5.323,5.323,0,0,1,2.705-.664,4.858,4.858,0,0,1,3.74,1.47,5.64,5.64,0,0,1,1.367,4v.117a5.472,5.472,0,0,1-1.372,3.921,4.871,4.871,0,0,1-3.716,1.45A4.927,4.927,0,0,1,118,42.843a5.29,5.29,0,0,1-1.475-3.667Zm3.291.205a3.932,3.932,0,0,0,.459,2.148,1.529,1.529,0,0,0,1.357.684q1.758,0,1.8-2.705v-.332q0-2.842-1.816-2.842-1.65,0-1.787,2.451Zm13.545-.332a13.925,13.925,0,0,1-.674,4.355,11.12,11.12,0,0,1-1.86,3.54,6.193,6.193,0,0,1-2.563,2.007l-.625-1.621a6.43,6.43,0,0,0,2.1-3.125,15.085,15.085,0,0,0,.771-4.854v-.6a15.612,15.612,0,0,0-.747-5.1,6.34,6.34,0,0,0-2.124-3.164l.625-1.621A6.307,6.307,0,0,1,130.8,30.3a10.984,10.984,0,0,1,1.855,3.486,13.807,13.807,0,0,1,.7,4.272Z" transform="translate(696.991 4804.599)" fill="#8ee3ff"/>
        <path id="Trazado_187743" data-name="Trazado 187743" d="M206.143,16.344h-4.7L200.625,19h-3.662l5.215-14.219H205.4L210.654,19h-3.682ZM202.266,13.7h3.057l-1.533-4.932Zm8.857-.059a6.455,6.455,0,0,1,1.084-3.955,3.568,3.568,0,0,1,3.027-1.445,3.035,3.035,0,0,1,2.383,1.113V4h3.3V19h-2.959l-.166-1.133a3.116,3.116,0,0,1-2.578,1.328,3.562,3.562,0,0,1-2.988-1.445A6.659,6.659,0,0,1,211.123,13.639Zm3.291.205q0,2.813,1.641,2.813a1.62,1.62,0,0,0,1.563-.918V11.715a1.576,1.576,0,0,0-1.543-.937q-1.523,0-1.65,2.461ZM228.74,19a3.716,3.716,0,0,1-.312-.947,3.06,3.06,0,0,1-2.539,1.143,3.749,3.749,0,0,1-2.539-.9,2.875,2.875,0,0,1-1.045-2.271,2.955,2.955,0,0,1,1.27-2.6,6.468,6.468,0,0,1,3.691-.879h1.016v-.559q0-1.462-1.26-1.462a1.03,1.03,0,0,0-1.172,1.158h-3.291a2.95,2.95,0,0,1,1.3-2.487,5.479,5.479,0,0,1,3.325-.956,4.8,4.8,0,0,1,3.193.986,3.429,3.429,0,0,1,1.2,2.705v4.678a4.79,4.79,0,0,0,.449,2.227V19Zm-2.061-2.148a1.836,1.836,0,0,0,1.021-.264,1.653,1.653,0,0,0,.581-.6V14.3h-.957q-1.719,0-1.719,1.543a.942.942,0,0,0,.3.728A1.1,1.1,0,0,0,226.68,16.852Zm16.533-3.057a6.372,6.372,0,0,1-1.108,3.931,3.554,3.554,0,0,1-2.993,1.47,3.046,3.046,0,0,1-2.393-1.064v4.932h-3.291V8.434H236.5l.1.977a3.046,3.046,0,0,1,2.49-1.172,3.582,3.582,0,0,1,3.037,1.44,6.45,6.45,0,0,1,1.084,3.96Zm-3.291-.205q0-2.812-1.641-2.812a1.549,1.549,0,0,0-1.562.84v4.16a1.6,1.6,0,0,0,1.582.879q1.572,0,1.621-2.715ZM248.5,5.807V8.434h1.738v2.285H248.5v4.834a1.234,1.234,0,0,0,.215.83,1.152,1.152,0,0,0,.85.234,4.828,4.828,0,0,0,.82-.059v2.354a6.074,6.074,0,0,1-1.855.283,3.448,3.448,0,0,1-2.51-.8,3.282,3.282,0,0,1-.811-2.432V10.719h-1.348V8.434h1.348V5.807ZM257.48,19a3.716,3.716,0,0,1-.312-.947,3.06,3.06,0,0,1-2.539,1.143,3.749,3.749,0,0,1-2.539-.9,2.875,2.875,0,0,1-1.045-2.271,2.955,2.955,0,0,1,1.27-2.6,6.468,6.468,0,0,1,3.691-.879h1.016v-.559q0-1.462-1.26-1.462a1.03,1.03,0,0,0-1.172,1.158H251.3a2.95,2.95,0,0,1,1.3-2.487,5.479,5.479,0,0,1,3.325-.956,4.8,4.8,0,0,1,3.193.986,3.429,3.429,0,0,1,1.2,2.705v4.678a4.79,4.79,0,0,0,.449,2.227V19Zm-2.061-2.148a1.836,1.836,0,0,0,1.021-.264,1.653,1.653,0,0,0,.581-.6V14.3h-.957q-1.719,0-1.719,1.543a.942.942,0,0,0,.3.728A1.1,1.1,0,0,0,255.42,16.852ZM265.977,5.807V8.434h1.738v2.285h-1.738v4.834a1.234,1.234,0,0,0,.215.83,1.152,1.152,0,0,0,.85.234,4.828,4.828,0,0,0,.82-.059v2.354a6.074,6.074,0,0,1-1.855.283,3.448,3.448,0,0,1-2.51-.8,3.282,3.282,0,0,1-.811-2.432V10.719h-1.348V8.434h1.348V5.807ZM272.48,19h-3.3V8.434h3.3Zm-3.5-13.3a1.482,1.482,0,0,1,.508-1.159,2.149,2.149,0,0,1,2.637,0,1.482,1.482,0,0,1,.508,1.159,1.482,1.482,0,0,1-.508,1.159,2.149,2.149,0,0,1-2.637,0A1.482,1.482,0,0,1,268.984,5.7Zm9.736,9.385,1.67-6.65h3.467L280.41,19h-3.359L273.6,8.434h3.477Zm5.557-1.465a6.236,6.236,0,0,1,.615-2.817,4.4,4.4,0,0,1,1.768-1.9,5.323,5.323,0,0,1,2.705-.664,4.859,4.859,0,0,1,3.74,1.47,5.64,5.64,0,0,1,1.367,4v.117a5.472,5.472,0,0,1-1.372,3.921,4.871,4.871,0,0,1-3.716,1.45,4.927,4.927,0,0,1-3.623-1.353,5.29,5.29,0,0,1-1.475-3.667Zm3.291.205a3.931,3.931,0,0,0,.459,2.148,1.529,1.529,0,0,0,1.357.684q1.758,0,1.8-2.705v-.332q0-2.842-1.816-2.842-1.65,0-1.787,2.451ZM231.152,38.219a14.924,14.924,0,0,1,.635-4.434,10.7,10.7,0,0,1,1.753-3.477,6.225,6.225,0,0,1,2.485-1.992l.625,1.621a6.367,6.367,0,0,0-2.114,3.14,15.313,15.313,0,0,0-.757,5v.43a15.612,15.612,0,0,0,.747,5.1,6.34,6.34,0,0,0,2.124,3.164l-.625,1.621a6.163,6.163,0,0,1-2.485-2,10.538,10.538,0,0,1-1.753-3.462,15,15,0,0,1-.635-4.277Zm19-1.035a8.385,8.385,0,0,1-.771,3.682,5.7,5.7,0,0,1-2.192,2.466,6.1,6.1,0,0,1-3.237.864,6.191,6.191,0,0,1-3.223-.835,5.692,5.692,0,0,1-2.192-2.388,8.144,8.144,0,0,1-.825-3.564v-.8a8.422,8.422,0,0,1,.767-3.687,5.688,5.688,0,0,1,2.2-2.466,6.5,6.5,0,0,1,6.479-.01,5.79,5.79,0,0,1,2.2,2.446,8.18,8.18,0,0,1,.8,3.638Zm-3.486-.6a5.979,5.979,0,0,0-.708-3.218,2.271,2.271,0,0,0-2.026-1.1q-2.578,0-2.725,3.867l-.01,1.045a6.15,6.15,0,0,0,.693,3.213,2.268,2.268,0,0,0,2.061,1.123,2.24,2.24,0,0,0,2-1.1,5.982,5.982,0,0,0,.713-3.174Zm9.316,3.5,1.67-6.65h3.467L257.676,44h-3.359l-3.447-10.566h3.477Zm11.1,4.111a5.432,5.432,0,0,1-3.936-1.45,5.008,5.008,0,0,1-1.5-3.774V38.7a6.489,6.489,0,0,1,.6-2.861A4.395,4.395,0,0,1,264,33.917a5.292,5.292,0,0,1,2.734-.679,4.574,4.574,0,0,1,3.516,1.382,5.43,5.43,0,0,1,1.289,3.853v1.279H265a2.372,2.372,0,0,0,.771,1.4,2.3,2.3,0,0,0,1.543.508,2.958,2.958,0,0,0,2.441-1.094l1.5,1.777a4.2,4.2,0,0,1-1.743,1.353A5.891,5.891,0,0,1,267.09,44.2Zm-.371-8.418q-1.445,0-1.719,1.914h3.32v-.254a1.63,1.63,0,0,0-.4-1.226A1.593,1.593,0,0,0,266.719,35.777Zm9.688-2.344V44.361a3.836,3.836,0,0,1-1.074,2.891,4.127,4.127,0,0,1-2.969,1.016,7.009,7.009,0,0,1-1.553-.166v-2.49a6.3,6.3,0,0,0,.928.088,1.2,1.2,0,0,0,1.367-1.357V33.434ZM272.861,30.7a1.482,1.482,0,0,1,.508-1.159,2.149,2.149,0,0,1,2.637,0,1.577,1.577,0,0,1,0,2.319,2.149,2.149,0,0,1-2.637,0A1.482,1.482,0,0,1,272.861,30.7ZM284.219,44a3.716,3.716,0,0,1-.312-.947,3.06,3.06,0,0,1-2.539,1.143,3.749,3.749,0,0,1-2.539-.9,2.875,2.875,0,0,1-1.045-2.271,2.955,2.955,0,0,1,1.27-2.6,6.468,6.468,0,0,1,3.691-.879h1.016v-.559q0-1.462-1.26-1.462a1.03,1.03,0,0,0-1.172,1.158h-3.291a2.95,2.95,0,0,1,1.3-2.487,5.479,5.479,0,0,1,3.325-.956,4.8,4.8,0,0,1,3.193.986,3.429,3.429,0,0,1,1.2,2.705v4.678a4.79,4.79,0,0,0,.449,2.227V44Zm-2.061-2.148a1.836,1.836,0,0,0,1.021-.264,1.653,1.653,0,0,0,.581-.6V39.3H282.8q-1.719,0-1.719,1.543a.942.942,0,0,0,.3.728A1.1,1.1,0,0,0,282.158,41.852Zm11.914-3.359a13.925,13.925,0,0,1-.674,4.355,11.12,11.12,0,0,1-1.86,3.54,6.193,6.193,0,0,1-2.563,2.007l-.625-1.621a6.43,6.43,0,0,0,2.1-3.125,15.085,15.085,0,0,0,.771-4.854v-.6a15.612,15.612,0,0,0-.747-5.1,6.34,6.34,0,0,0-2.124-3.164l.625-1.621a6.307,6.307,0,0,1,2.544,1.987,10.984,10.984,0,0,1,1.855,3.486,13.807,13.807,0,0,1,.7,4.272Z" transform="translate(786.589 4990.88)" fill="#99ffec"/>
        <g id="Grupo_149931" data-name="Grupo 149931" transform="translate(545.254 4664.489)">
          <g id="Grupo_149917" data-name="Grupo 149917" transform="translate(0 0)" clip-path="url(#clip-path)">
            <path id="Trazado_187720" data-name="Trazado 187720" d="M69.591,18.523A1.12,1.12,0,1,0,70.712,17.4a1.12,1.12,0,0,0-1.121,1.121M49.807,58.047A22.076,22.076,0,0,1,38.189,68.329l.752,10.185a4.746,4.746,0,0,1,3.76,3.963.71.71,0,0,1-.726.807H34.02a.709.709,0,0,1-.7-.616l-2.931-16.69a.708.708,0,0,1,.21-.637,25.077,25.077,0,0,0,4.794-7.295H34.177A22.074,22.074,0,0,1,22.556,68.329l.754,10.185a4.743,4.743,0,0,1,3.758,3.963.708.708,0,0,1-.724.807H18.388a.708.708,0,0,1-.7-.616l-2.933-16.69a.706.706,0,0,1,.21-.636A25,25,0,0,0,21.72,50.049l-3.655,6.328c-3.925,6.8-9.6,12.495-17.717,7.73a.71.71,0,0,1-.132-1.123L21.969,41.233a.692.692,0,0,1,.351-.191l26.408-7.076L59.621,23.043l-3.813-2.2a.706.706,0,0,1,.206-1.318l9.713-2.6,2.506-2.5a.7.7,0,0,1,.527-.2H72.79l6.643-6.643a.707.707,0,0,1,1.187.188L83.1,12.052a.7.7,0,0,1,.04.625L80.78,19.487l3.266-.875a.708.708,0,0,1,.81.359l.918,1.59a.711.711,0,0,1-.12.864L78.409,28.67,72.228,51.735V78.586a4.744,4.744,0,0,1,3.461,3.892.709.709,0,0,1-.722.807H67.008a.71.71,0,0,1-.708-.692L63.694,56.981l-1.572.908v20.7a4.744,4.744,0,0,1,3.461,3.892.709.709,0,0,1-.721.807H56.9a.708.708,0,0,1-.707-.692L53.7,58.047Zm21.006-5.175-5.779,3.336,2.612,25.661h6.419a3.333,3.333,0,0,0-2.578-2,.709.709,0,0,1-.674-.707Zm-17.736-.9.475,4.659h-18.7a21.617,21.617,0,0,0,1.429-4.6.707.707,0,0,0-1.388-.265,20.529,20.529,0,0,1-13.319,15.41.708.708,0,0,0-.469.717l.834,11.288a.707.707,0,0,0,.678.656,3.326,3.326,0,0,1,2.824,2.024H18.982L16.208,66.08C21.161,60.7,23.175,54.6,23.176,47.351a.71.71,0,0,0-1.367-.283l-4.966,8.6c-3.235,5.6-7.962,11.182-14.972,7.662L22.837,42.366l26.438-7.083a.729.729,0,0,0,.345-.213L61.241,23.417a.709.709,0,0,0-.2-1.183L57.97,20.462l8.3-2.224a.714.714,0,0,0,.344-.21l2.407-2.4h4.061a.746.746,0,0,0,.519-.223l6.211-6.211,1.9,3.286-2.7,7.8a.707.707,0,0,0,.875.905l4-1.072.392.68-7,7a.692.692,0,0,0-.191.351L70.913,51.181l-9.854,5.69a.719.719,0,0,0-.354.673V79.164a.709.709,0,0,0,.673.707,3.333,3.333,0,0,1,2.579,2H57.539L54.481,51.837a.706.706,0,0,0-1.4.139M36.922,58.047A26.565,26.565,0,0,1,31.84,66.08l2.773,15.788h6.463a3.33,3.33,0,0,0-2.824-2.024.708.708,0,0,1-.68-.656L36.739,67.9a.707.707,0,0,1,.47-.717,20.681,20.681,0,0,0,10.984-9.137Z" transform="translate(0 2.752)" fill="#fff" stroke="#fff" stroke-width="1" fill-rule="evenodd"/>
            <path id="Trazado_187721" data-name="Trazado 187721" d="M67.593,4.251a.883.883,0,0,0,1.532.876L71.3,1.321A.883.883,0,0,0,69.769.444Z" transform="translate(25.345 0)" fill="#fff" stroke="#fff" stroke-width="1" fill-rule="evenodd"/>
            <path id="Trazado_187722" data-name="Trazado 187722" d="M70.8,14.975a.883.883,0,0,1,.876-1.532L75.48,15.62a.882.882,0,1,1-.876,1.531Z" transform="translate(26.426 5.005)" fill="#fff" stroke="#fff" stroke-width="1" fill-rule="evenodd"/>
            <path id="Trazado_187723" data-name="Trazado 187723" d="M71.629,9.66a.882.882,0,0,1-.464-1.7L75.4,6.8a.882.882,0,0,1,.464,1.7Z" transform="translate(26.487 2.544)" fill="#fff" stroke="#fff" stroke-width="1" fill-rule="evenodd"/>
          </g>
        </g>
        <g id="Grupo_149934" data-name="Grupo 149934" transform="translate(968.117 4684.377)">
          <g id="Grupo_149919" data-name="Grupo 149919" transform="translate(0 0)" clip-path="url(#clip-path-2)">
            <path id="Trazado_187724" data-name="Trazado 187724" d="M18.182,38.388a16.4,16.4,0,0,0,11.207,9.889l-.549-2.05c-2.418-9.027,3.644-20.134,12.414-23.22a.707.707,0,0,1,.465,1.334c-8.079,2.842-13.741,13.2-11.513,21.522l1.1,4.119a.709.709,0,0,1-.5.867L25.687,52.22a7.423,7.423,0,0,0-5.493,7.518l29.748-7.966c7.756-2.079,12.757-8,14.883-14.824C69.192,22.933,61.651,8.419,45.854,8.721A26.609,26.609,0,0,0,24.487,20.462a.708.708,0,0,1-.838.271,16.437,16.437,0,0,0-2.147-.652.706.706,0,0,1-.453-1.123A18.4,18.4,0,0,0,23.842,2.29,18.387,18.387,0,0,0,11.526,20.427a.706.706,0,0,1-.417.68A16.457,16.457,0,0,0,1.483,37.587a16.421,16.421,0,0,0,15.63.422.709.709,0,0,1,1.069.378M11.2,24.062A2.807,2.807,0,1,1,9.211,27.5,2.81,2.81,0,0,1,11.2,24.062m.365,1.366a1.393,1.393,0,1,1-.984,1.706,1.392,1.392,0,0,1,.984-1.706m53.994-5.919,4.933-4.934a.713.713,0,0,1,1.135.052A10.5,10.5,0,0,1,67.331,31.7a28.543,28.543,0,0,1-1.157,5.665A24.348,24.348,0,0,1,59.4,48.207L64.6,49.6h5.728a.709.709,0,0,1,.755.828c-.561,5.017-5.749,8.953-10.755,7.611l-14.162-3.8L19.761,61.317a.709.709,0,0,1-.894-.677,8.835,8.835,0,0,1,6.456-9.786l4.135-1.107A17.782,17.782,0,0,1,17.142,39.56a17.809,17.809,0,0,1-16.69-.94.7.7,0,0,1-.338-.546,17.859,17.859,0,0,1,6.8-16.085A19.784,19.784,0,0,1,10.668.22a.7.7,0,0,1,.989-.033A19.7,19.7,0,0,1,16.009,5.54,19.791,19.791,0,0,1,24.075.728a.708.708,0,0,1,.872.435,19.787,19.787,0,0,1-2.164,17.792c.282.084.561.169.841.267A28.021,28.021,0,0,1,45.832,7.311c9.741-.187,16.6,4.94,19.724,12.2m1.883,10.643a24.736,24.736,0,0,0-1.322-9.2L71,16.063a9.082,9.082,0,0,1-3.564,14.089M48.9,53.514l1.407-.377a21.912,21.912,0,0,0,7.767-3.821l6.214,1.666a.7.7,0,0,0,.223.036h5.047a7.467,7.467,0,0,1-8.918,5.641ZM14.99,6.621a19.745,19.745,0,0,0-4.888,13.4,17.441,17.441,0,0,0-2.015,1.134A18.373,18.373,0,0,1,11.228,1.7,18.3,18.3,0,0,1,14.99,6.621" transform="translate(0 -0.001)" fill="#fff" stroke="#fff" stroke-width="1" fill-rule="evenodd"/>
            <path id="Trazado_187725" data-name="Trazado 187725" d="M37.926,47.275a.882.882,0,0,0-1.081,1.395l3.464,2.687a.883.883,0,1,0,1.083-1.395Z" transform="translate(13.711 17.687)" fill="#fff" stroke="#fff" stroke-width="1" fill-rule="evenodd"/>
            <path id="Trazado_187726" data-name="Trazado 187726" d="M26.563,48.8a.882.882,0,1,1,1.395,1.081l-2.687,3.465a.882.882,0,1,1-1.395-1.081Z" transform="translate(8.899 18.203)" fill="#fff" stroke="#fff" stroke-width="1" fill-rule="evenodd"/>
            <path id="Trazado_187727" data-name="Trazado 187727" d="M31.288,50.414a.883.883,0,0,1,1.751-.221l.55,4.35a.883.883,0,0,1-1.751.221Z" transform="translate(11.75 18.563)" fill="#fff" stroke="#fff" stroke-width="1" fill-rule="evenodd"/>
          </g>
        </g>
        <g id="Grupo_149933" data-name="Grupo 149933" transform="translate(756.992 4728.527)">
          <g id="Grupo_149921" data-name="Grupo 149921" transform="translate(0 0)" clip-path="url(#clip-path-3)">
            <path id="Trazado_187728" data-name="Trazado 187728" d="M65.479,48.5l1.374-11.419c.75-6.226-.7-12.3-5.742-16.374a.735.735,0,0,1-.267-.592A20.944,20.944,0,0,0,58.6,11.895a.709.709,0,0,1,.014-.68A57.059,57.059,0,0,1,61.674,5.5H53.317a.7.7,0,0,1-.45-.162A22.217,22.217,0,0,0,40.05,1.416,22.223,22.223,0,0,0,27.19,5.369a.734.734,0,0,1-.42.133H18.428a57.032,57.032,0,0,1,3.084,5.762.705.705,0,0,1-.018.633,21.035,21.035,0,0,0-2.251,8.32.7.7,0,0,1-.288.523c-5.011,4.08-6.453,10.137-5.707,16.345L14.625,48.5A27.424,27.424,0,0,0,17.9,58.8c10.429,3.18,22.655.7,31.416-5.651a27.727,27.727,0,0,1-17.274-.638A21.888,21.888,0,0,1,18.124,37.289a.707.707,0,0,1,1.107-.746,18.1,18.1,0,0,0,7.406,2.48,19.084,19.084,0,0,1-3.725-5.248,20.24,20.24,0,0,1,.821-18.506c2.231-3.783,5.917-6.386,10.44-5.066A14.137,14.137,0,0,1,40.052,14,14.129,14.129,0,0,1,45.93,10.2c4.522-1.319,8.208,1.283,10.44,5.066a20.24,20.24,0,0,1,.821,18.506,19.084,19.084,0,0,1-3.725,5.248,18.132,18.132,0,0,0,7.527-2.549.707.707,0,0,1,1.052.772C57.583,55.237,36.153,64.864,19,60.567,30.985,78.1,62.4,74.082,65.479,48.5M47.069,19.952a1.77,1.77,0,1,1-1.77,1.77,1.767,1.767,0,0,1,1.77-1.77m0-1.416a3.187,3.187,0,1,1-3.186,3.186,3.19,3.19,0,0,1,3.186-3.186M32.311,19.952a1.77,1.77,0,1,1-1.77,1.77,1.768,1.768,0,0,1,1.77-1.77m0-1.416a3.187,3.187,0,1,1-3.186,3.186,3.19,3.19,0,0,1,3.186-3.186m7.28,17.827a9.155,9.155,0,0,1-3.546-6.976c0-6,8.014-6,8.014,0A9.159,9.159,0,0,1,40.5,36.371a.7.7,0,0,1-.911-.008m.461-1.473a7.55,7.55,0,0,1-2.592-5.5c0-4.123,5.183-4.123,5.183,0a7.55,7.55,0,0,1-2.592,5.5M52.684,50.352a26.078,26.078,0,0,1-20.143.834A20.558,20.558,0,0,1,19.977,38.554,19.647,19.647,0,0,0,28.6,40.544a.71.71,0,0,0,.406-1.289,17.651,17.651,0,0,1-4.82-6.088,18.853,18.853,0,0,1,.765-17.177c1.894-3.212,4.949-5.563,8.83-4.431a13.354,13.354,0,0,1,5.757,3.937.705.705,0,0,0,1.029,0,13.358,13.358,0,0,1,5.756-3.937c3.882-1.132,6.937,1.219,8.831,4.431a18.858,18.858,0,0,1,.765,17.177,17.659,17.659,0,0,1-4.857,6.119.708.708,0,0,0,.468,1.259,19.663,19.663,0,0,0,8.694-2.035,28.019,28.019,0,0,1-7.538,11.843M13.2,48.5,11.846,37.25c-.794-6.595.77-13.031,6.01-17.432a22.3,22.3,0,0,1,2.233-8.267,52.464,52.464,0,0,0-3.513-6.328.71.71,0,0,1,.564-1.138h9.42a24.312,24.312,0,0,1,26.979,0h9.368a.709.709,0,0,1,.648,1.1,52.158,52.158,0,0,0-3.541,6.37,22.413,22.413,0,0,1,2.226,8.258c5.245,4.4,6.813,10.84,6.018,17.439L66.9,48.5c-3.882,32.249-49.821,32.249-53.7,0" transform="translate(4.377 0)" fill="#fff" stroke="#fff" stroke-width="1" fill-rule="evenodd"/>
            <path id="Trazado_187729" data-name="Trazado 187729" d="M8.356,12.39a.883.883,0,0,1-1.532.876L4.648,9.46A.883.883,0,0,1,6.18,8.583Z" transform="translate(1.702 3.057)" fill="#fff" stroke="#fff" stroke-width="1" fill-rule="evenodd"/>
            <path id="Trazado_187730" data-name="Trazado 187730" d="M5.6,23.114a.883.883,0,0,0-.876-1.532L.914,23.758a.883.883,0,0,0,.876,1.532Z" transform="translate(0.177 8.062)" fill="#fff" stroke="#fff" stroke-width="1" fill-rule="evenodd"/>
            <path id="Trazado_187731" data-name="Trazado 187731" d="M4.881,17.8a.882.882,0,0,0,.464-1.7l-4.23-1.153a.882.882,0,1,0-.464,1.7Z" transform="translate(0 5.601)" fill="#fff" stroke="#fff" stroke-width="1" fill-rule="evenodd"/>
          </g>
        </g>
        <g id="Grupo_149935" data-name="Grupo 149935" transform="translate(962.899 4884.118)">
          <g id="Grupo_149923" data-name="Grupo 149923" transform="translate(0 0)" clip-path="url(#clip-path-4)">
            <path id="Trazado_187732" data-name="Trazado 187732" d="M16.267,5.264a.882.882,0,1,0,1.625-.688L16.183.539a.883.883,0,0,0-1.626.688Z" transform="translate(5.442 0)" fill="#fff" stroke="#fff" stroke-width="1" fill-rule="evenodd"/>
            <path id="Trazado_187733" data-name="Trazado 187733" d="M27.1,9.207a.882.882,0,1,1-.688-1.625l4.037-1.71A.883.883,0,1,1,31.137,7.5Z" transform="translate(9.718 2.179)" fill="#fff" stroke="#fff" stroke-width="1" fill-rule="evenodd"/>
            <path id="Trazado_187734" data-name="Trazado 187734" d="M23.124,5.776a.882.882,0,1,1-1.636-.663L23.135,1.05a.882.882,0,1,1,1.636.663Z" transform="translate(8.047 0.187)" fill="#fff" stroke="#fff" stroke-width="1" fill-rule="evenodd"/>
            <path id="Trazado_187735" data-name="Trazado 187735" d="M33.21,73.639c-.067,0-.136,0-.2-.006A1.139,1.139,0,0,1,31.954,73a.905.905,0,0,1-.743-.191.918.918,0,0,1-.294-.871,1.93,1.93,0,0,1,.074-.282A7.768,7.768,0,0,1,32,69.551a12.6,12.6,0,0,0,1-1.809,7.819,7.819,0,0,0,.648-2.215l-.041.088a2.8,2.8,0,0,1-1.561,1.494,3.962,3.962,0,0,0-.469.224,2.034,2.034,0,0,1-1.176.283,1.185,1.185,0,0,0-.327.047c-.415.085-.713.122-1.01.16l-.254.033a1.114,1.114,0,0,1-.34,0,1.022,1.022,0,0,1-.924-1.151,2.137,2.137,0,0,1,.194-.693c.18-.381.377-.757.578-1.128l.422-.773c.19-.341.38-.684.561-1.029a11.665,11.665,0,0,0,.708-1.68,4.825,4.825,0,0,0,.132-2.742c-.153-.612-.329-1.22-.5-1.828l-.392-1.315a9,9,0,0,1-.391-1.824c-.289-.072-.57-.139-.852-.2a2.786,2.786,0,0,1-1.233-.516A2.6,2.6,0,0,0,26.5,52.8a.7.7,0,0,0-.348-.11h-.018a3.912,3.912,0,0,1-1.216-.2,1.93,1.93,0,0,0-.567-.072,5.036,5.036,0,0,1-3.279-1.187c-.132-.113-.263-.228-.392-.349a.852.852,0,0,0-.547-.231l-.343-.025a1.594,1.594,0,0,1-1.292-.874,2.332,2.332,0,0,1-.275-1.065,5.922,5.922,0,0,1,.032-.75.358.358,0,0,0-.087-.312l.424-.575-.521.447a3.154,3.154,0,0,1-.717-2.38l.023-.21c.015-.08.019-.1-.116-.191-.087-.055-.173-.117-.261-.18a2.884,2.884,0,0,1-1.222-1.681c-.045-.164-.083-.326-.118-.488l-.059-.25c-.04-.165-.066-.279-.1-.391a.829.829,0,0,0-.254-.4l-.4-.352a3.243,3.243,0,0,1-.951-1.411c-.066-.187-.129-.378-.188-.57a.726.726,0,0,0-.347-.454,4.022,4.022,0,0,1-.374-.239,2.228,2.228,0,0,1-.937-1.567l-.018-.217a.365.365,0,0,1-.173-.078,2.522,2.522,0,0,1-.913-1.1,2.588,2.588,0,0,0-.459-.75,3.105,3.105,0,0,1-.589-1,2.306,2.306,0,0,0-.5-.876,1.455,1.455,0,0,1-.418-1.062c0-.319.006-.554.026-.79a.859.859,0,0,0-.186-.662A2.1,2.1,0,0,1,8.4,28.5a12.6,12.6,0,0,0-1.865.2,12.1,12.1,0,0,0-1.282.334,12.963,12.963,0,0,1-1.605.355,1.738,1.738,0,0,1-1.63-.475,2.364,2.364,0,0,1-.68-1.246,3.069,3.069,0,0,1-.924-1.18,5.062,5.062,0,0,1-.4-2.465,2.484,2.484,0,0,1,.319-1.018,4.947,4.947,0,0,1,1.121-1.42c.34-.288.686-.567,1.033-.847l1.453-1.18c.9-.732,1.8-1.462,2.691-2.2.305-.252.6-.512.9-.773l.525-.459a.405.405,0,0,0,.129-.161,2.9,2.9,0,0,1,.59-.889,2.243,2.243,0,0,1,.015-1.553,3.844,3.844,0,0,0,.11-.4,2.342,2.342,0,0,1,.956-1.46,3.363,3.363,0,0,1,2.927-.49,4.113,4.113,0,0,1,.4.142,3.688,3.688,0,0,1,2.522-.607,4.546,4.546,0,0,1,1.15.21A2.438,2.438,0,0,1,19.2,10.9a5.653,5.653,0,0,1,.543.312l.021.011a1.144,1.144,0,0,1,.874.248.986.986,0,0,0,.475.182,3.763,3.763,0,0,1,1.043.343,2.944,2.944,0,0,0,.5.171,3.286,3.286,0,0,1,1.321.677,3.174,3.174,0,0,0,.536.359,3.1,3.1,0,0,1,1.266,1.227A1.5,1.5,0,0,0,26.36,15a5.788,5.788,0,0,1,1.517,1.294,4.863,4.863,0,0,0,.516.494l.164.142c.237.209.475.413.714.619l.371.316c.083.073.162.146.241.22a2.976,2.976,0,0,0,1.494.79c.275.058.542.131.81.2.2.054.4.109.6.154.25.061.48.072.648.11a11.732,11.732,0,0,1,2.436.282c.746.162,1.5.305,2.257.41a19.1,19.1,0,0,0,3.136.246c.384,0,.772.023,1.162.055.188.015.378.029.57.04.418.023.839.041,1.259.052l2.512.065a9.632,9.632,0,0,0,2.069-.165c.984-.18,1.964-.363,2.942-.557.371-.074.74-.171,1.1-.275a10.72,10.72,0,0,1,1.982-.378,24.218,24.218,0,0,1,3.81-.091q1.026.06,2.047.175a6.331,6.331,0,0,0,2.03-.142l1.413-.3a7.115,7.115,0,0,1,3.121.065,5.169,5.169,0,0,0,1.878.132,6.5,6.5,0,0,1,2.733.235l.564.171c.288.084.576.171.861.264a4.53,4.53,0,0,1,.8.356,2.017,2.017,0,0,0,.853.265,2.844,2.844,0,0,1,1.575.619,1.02,1.02,0,0,0,.367.194,6.232,6.232,0,0,1,2.726,1.755,2.53,2.53,0,0,0,.664.51,3.653,3.653,0,0,1,1.318.989l.864.721a3.761,3.761,0,0,0,.315.256,2.02,2.02,0,0,1,.645.739c.106.182.151.26.19.343a1.579,1.579,0,0,1,.165.556,1.437,1.437,0,0,0,.069.3c.223.784.41,1.453.574,2.129a4.355,4.355,0,0,1,.113,1.021c0,.564-.025,1.131-.065,1.693a4.337,4.337,0,0,0,.058,1.135c.041.22.077.44.114.662.039.238.078.476.124.713a4.886,4.886,0,0,1-.04,1.946c-.076.378-.175.754-.274,1.129l-.05.187a2.015,2.015,0,0,1-.461.861,1.381,1.381,0,0,1-.941.5,1.618,1.618,0,0,1-1.673.03,2.545,2.545,0,0,1,.153.8A2.312,2.312,0,0,1,81.34,41a2.225,2.225,0,0,0-.092,1.344,5.481,5.481,0,0,1-.442,3.764c-.062.139-.128.271-.194.4a2.453,2.453,0,0,0-.25,1.479,8.379,8.379,0,0,1,.051,1.344c-.006.2-.011.406,0,.609a8.034,8.034,0,0,1-.2,2.15,3.365,3.365,0,0,0,0,1.6,5.308,5.308,0,0,1,.1.56,2.538,2.538,0,0,1-.825,2.351l-.011.067c-.032.2-.065.407-.091.616a44.326,44.326,0,0,1-.993,4.958c-.36,1.484-.671,2.982-.978,4.48-.081.392-.133.79-.187,1.186-.032.232-.062.464-.1.695-.047.308-.107.618-.172.926a4.187,4.187,0,0,1-.967,1.905c-.113.132-.234.257-.356.382l-.146.15a2.858,2.858,0,0,1-1.5.813,5.675,5.675,0,0,1-1.5.127,3.974,3.974,0,0,0-1.193.087,1.82,1.82,0,0,1-1.1-.069.7.7,0,0,0-.326-.044,1.057,1.057,0,0,1-1.131-1.014,2.188,2.188,0,0,1,.287-1.323c.208-.359.435-.71.673-1.051.177-.256.362-.509.549-.761l.376-.513a5.051,5.051,0,0,0,.713-1.461,31.555,31.555,0,0,0,.874-3.6c.191-1.03.377-2.061.527-3.1.084-.582.139-1.168.194-1.751l.023-.239a4.792,4.792,0,0,1-1.852-.664c-.122-.07-.241-.144-.356-.22l-.761.733c-2.179,2.1-4.434,4.273-6.516,6.529-.169.186-.351.362-.532.536a1.558,1.558,0,0,1-1.846.366,2.5,2.5,0,0,0-1.194-.216,4.384,4.384,0,0,1-.9-.114,6.08,6.08,0,0,0-1.766-.088,2.49,2.49,0,0,1-.718-.021,1.225,1.225,0,0,1-.915-1.8,3.51,3.51,0,0,1,1.3-1.469,5.443,5.443,0,0,1,.48-.265,9.992,9.992,0,0,0,2.993-2.289,19.028,19.028,0,0,0,1.937-2.57,27.8,27.8,0,0,0,2.19-4.2.539.539,0,0,0-.131.111,2.392,2.392,0,0,1-.924.674l-.173.073c-.259.107-.514.215-.779.31a3.117,3.117,0,0,1-.763.182,2.566,2.566,0,0,0-.667.154,3.9,3.9,0,0,1-1.063.22c-.215.019-.431.048-.645.077l-.514.067a4.578,4.578,0,0,1-.545.059,3.489,3.489,0,0,0-.949.172,3.66,3.66,0,0,1-1.34.171,4.52,4.52,0,0,0-1.263.125,5.223,5.223,0,0,1-.89.132,1.127,1.127,0,0,0-.512.149,3.849,3.849,0,0,1-2.208.671,9.391,9.391,0,0,0-1.261.095,3.642,3.642,0,0,1-1.256-.056l-.169-.032c-.461-.088-.922-.175-1.385-.246-.237-.037-.473-.05-.71-.063l-.175-.011a1.85,1.85,0,0,1-1.33-.094,1.117,1.117,0,0,0-.169-.058l-.2-.066c-.279-.1-.473-.172-.662-.257l-.128-.054-.132.007a3.46,3.46,0,0,0-.913.094,4.667,4.667,0,0,1-2.8-.067l-.242-.073c-.19-.056-.38-.113-.565-.177-.223.23-.444.435-.666.636l-.121.748c-.1.625-.2,1.248-.285,1.876-.095.724-.151,1.373-.176,1.988a19.722,19.722,0,0,0,.451,4.824l.146.7c.149.713.3,1.424.432,2.139a5.2,5.2,0,0,1,.055,1.977,3.319,3.319,0,0,1-.1.4,1.593,1.593,0,0,1-1.2,1.092c-.161.041-.239.061-.319.074a3.127,3.127,0,0,1-.118.6l-.063.267c-.023.107-.047.213-.076.319a1.346,1.346,0,0,1-.993.986c-.217.054-.436.1-.656.142-.5.081-.992.164-1.488.23a5.2,5.2,0,0,1-.656.044m-.034-1.378a4.337,4.337,0,0,0,.51-.03c.484-.063.963-.143,1.444-.223.182-.03.366-.073.546-.118.023-.1.041-.177.058-.261l.061-.263c.081-.31.147-.559.228-.8a1.256,1.256,0,0,1,1.011-.869l.241-.058a.226.226,0,0,0,.2-.18,2.051,2.051,0,0,0,.059-.237,3.9,3.9,0,0,0-.058-1.458c-.132-.706-.279-1.407-.425-2.11l-.147-.7a21.092,21.092,0,0,1-.48-5.159c.028-.656.088-1.347.187-2.113.085-.641.188-1.279.292-1.918l.133-.827a1.128,1.128,0,0,1,.38-.684c.209-.188.418-.378.612-.586a1.336,1.336,0,0,1,1.468-.367c.169.059.34.109.509.158l.257.078a3.354,3.354,0,0,0,1.993.063,4.639,4.639,0,0,1,1.282-.151l.162,0a1.515,1.515,0,0,1,.669.162c.177.081.34.139.5.2l.212.072a2.422,2.422,0,0,1,.355.128.5.5,0,0,0,.371.025,1.565,1.565,0,0,1,.472-.056l.165.011c.279.017.559.033.836.077.479.072.955.164,1.432.253l.169.033a2.347,2.347,0,0,0,.79.048,10.762,10.762,0,0,1,1.443-.111,2.4,2.4,0,0,0,1.378-.381l.118-.074a2.46,2.46,0,0,1,1.149-.36,3.779,3.779,0,0,0,.652-.092,5.46,5.46,0,0,1,1.673-.166,2.527,2.527,0,0,0,.857-.109,4.841,4.841,0,0,1,1.314-.237,3.644,3.644,0,0,0,.4-.044l.524-.07c.239-.033.479-.063.719-.084a2.588,2.588,0,0,0,.7-.143,4.119,4.119,0,0,1,1.014-.232,1.769,1.769,0,0,0,.431-.107c.238-.084.472-.183.7-.281l.177-.074a1.039,1.039,0,0,0,.4-.288,2.375,2.375,0,0,1,1.611-.751.864.864,0,0,1,.9.524,1.4,1.4,0,0,1,0,1.359,27.664,27.664,0,0,1-2.345,4.566,20.444,20.444,0,0,1-2.073,2.755,11.36,11.36,0,0,1-3.388,2.6,4.088,4.088,0,0,0-.374.2,2.194,2.194,0,0,0-.737.772c.089,0,.164-.006.21-.008a7.127,7.127,0,0,1,2.169.116,4.365,4.365,0,0,0,.57.081,3.849,3.849,0,0,1,1.838.355c.069.036.111.047.21-.045.239-.23.4-.387.553-.552,2.11-2.286,4.379-4.474,6.571-6.588l.894-.861c.067-.065.138-.122.213-.183l.337-.27.737.239.249.157c.109.067.216.138.329.2a2.857,2.857,0,0,0,1.67.481l.1-.01.744.16.07.563a2.1,2.1,0,0,1-.006.283l-.072.746c-.056.611-.114,1.217-.2,1.821-.151,1.055-.341,2.1-.538,3.153a32.224,32.224,0,0,1-.911,3.758,6.386,6.386,0,0,1-.911,1.854l-.384.527c-.179.241-.356.483-.527.73-.217.311-.424.63-.614.959a.756.756,0,0,0-.1.275,2.045,2.045,0,0,1,.578.131.47.47,0,0,0,.286.012,5.46,5.46,0,0,1,1.589-.121,3.906,3.906,0,0,0,1.124-.1,1.474,1.474,0,0,0,.79-.415l.16-.164c.1-.106.2-.209.3-.319a2.829,2.829,0,0,0,.663-1.289c.059-.283.114-.568.158-.854.034-.224.065-.446.094-.669.058-.428.117-.857.2-1.278.31-1.515.623-3.029.99-4.529a44.142,44.142,0,0,0,.963-4.806c.028-.224.065-.446.1-.659l.083-.539.176-.164a1.848,1.848,0,0,1,.16-.144,1.165,1.165,0,0,0,.411-1.175c-.018-.138-.037-.278-.069-.414a4.746,4.746,0,0,1-.006-2.237A6.553,6.553,0,0,0,79.036,50c-.01-.234,0-.469,0-.7A7.018,7.018,0,0,0,79,48.169a3.826,3.826,0,0,1,.389-2.279c.056-.111.111-.227.164-.343a4.047,4.047,0,0,0,.378-2.783l-.029-.143a3.61,3.61,0,0,1,.179-2.169,1.007,1.007,0,0,0,.055-.4,1.454,1.454,0,0,0-.118-.483,5.552,5.552,0,0,1-.355-1.546c-.017-.2-.018-.4-.018-.594l0-.459.586-.678.525.271a1.785,1.785,0,0,1,.695.839,1.458,1.458,0,0,0,.42.519c.238.206.311.2.5.089a1.357,1.357,0,0,1,.541-.172A.8.8,0,0,0,83.1,37.5l.051-.194c.094-.349.186-.7.257-1.052a3.539,3.539,0,0,0,.036-1.41c-.048-.249-.088-.5-.131-.751-.034-.21-.069-.422-.109-.633a5.731,5.731,0,0,1-.078-1.49c.04-.53.059-1.063.062-1.6a2.989,2.989,0,0,0-.074-.695c-.158-.655-.341-1.307-.527-1.959a2.955,2.955,0,0,1-.151-.707l-.208-.355a.66.66,0,0,0-.215-.242,5.394,5.394,0,0,1-.421-.338l-.7-.6a1.815,1.815,0,0,1-.341-.311,2.427,2.427,0,0,0-.853-.612,3.842,3.842,0,0,1-1.032-.776,4.814,4.814,0,0,0-2.117-1.4,2.383,2.383,0,0,1-.867-.453,1.48,1.48,0,0,0-.839-.314,3.488,3.488,0,0,1-1.407-.446,3.135,3.135,0,0,0-.552-.242c-.268-.088-.542-.169-.817-.25l-.583-.176a5.1,5.1,0,0,0-2.161-.184,6.519,6.519,0,0,1-2.372-.161,5.634,5.634,0,0,0-2.512-.051l-1.406.3a7.78,7.78,0,0,1-2.469.162c-.655-.074-1.316-.129-1.974-.169a23.172,23.172,0,0,0-3.6.088,9.251,9.251,0,0,0-1.731.329c-.4.117-.809.221-1.217.3-.985.2-1.974.381-2.963.563a11.6,11.6,0,0,1-2.356.187L44.214,21.8c-.429-.011-.861-.032-1.292-.055-.2-.011-.4-.025-.6-.041-.345-.028-.685-.052-1.034-.051a20.4,20.4,0,0,1-3.346-.26c-.791-.11-1.578-.259-2.358-.425a10.536,10.536,0,0,0-2.134-.253,5.129,5.129,0,0,1-.955-.14c-.235-.055-.45-.114-.666-.172-.243-.067-.487-.133-.733-.186a4.4,4.4,0,0,1-2.162-1.142l-.554-.487c-.245-.209-.49-.418-.73-.633l-.154-.133a6.116,6.116,0,0,1-.664-.642,4.458,4.458,0,0,0-1.16-1,2.868,2.868,0,0,1-1.088-1.095,1.731,1.731,0,0,0-.726-.689,4.6,4.6,0,0,1-.759-.513,1.962,1.962,0,0,0-.779-.4,4.027,4.027,0,0,1-.747-.259,2.355,2.355,0,0,0-.666-.226,2.413,2.413,0,0,1-1.008-.382l-.283.138-.59-.387a4.612,4.612,0,0,0-.421-.245,1.07,1.07,0,0,0-1.111.015,1.132,1.132,0,0,1-1.029.094,3.047,3.047,0,0,0-.854-.157,2.165,2.165,0,0,0-1.678.4,1.067,1.067,0,0,1-1.117.164,3.741,3.741,0,0,0-.4-.15,2.016,2.016,0,0,0-1.777.3.9.9,0,0,0-.377.559,5.838,5.838,0,0,1-.171.629.9.9,0,0,0-.01.652,1.167,1.167,0,0,1,.1.455,1.468,1.468,0,0,1-.111.531,1.183,1.183,0,0,1-.26.366,1.61,1.61,0,0,0-.343.492,1.8,1.8,0,0,1-.5.685l-.517.451c-.307.272-.615.542-.93.8q-1.347,1.108-2.7,2.205L3.356,21.807c-.338.275-.677.549-1.008.829a3.569,3.569,0,0,0-.8,1.032,1.109,1.109,0,0,0-.154.461,3.633,3.633,0,0,0,.288,1.8,1.223,1.223,0,0,0,.392.519,1.466,1.466,0,0,1,.626.964,1.012,1.012,0,0,0,.3.531.326.326,0,0,0,.334.1,12.461,12.461,0,0,0,1.521-.329,13.7,13.7,0,0,1,1.428-.371,17.475,17.475,0,0,1,2.985-.25l.3-.006.641.574-.235.446-.655-.165v0l.6.292c-.242.662-.184.9-.028,1.1a2.212,2.212,0,0,1,.484,1.634c-.017.2-.018.406-.019.608l.011.155a3.62,3.62,0,0,1,.82,1.381,1.685,1.685,0,0,0,.325.557,4.031,4.031,0,0,1,.7,1.135,1.073,1.073,0,0,0,.381.461l.164.117a1.3,1.3,0,0,1,.647,1.121.886.886,0,0,0,.374.666c.08.056.164.113.25.162a2.071,2.071,0,0,1,.989,1.248c.054.175.114.349.175.524a1.866,1.866,0,0,0,.55.823l.4.347a2.215,2.215,0,0,1,.674,1.037c.044.139.078.288.114.433l.073.312c.034.147.067.3.106.442a1.431,1.431,0,0,0,.581.835l.122.088c.062.044.124.089.188.131a1.491,1.491,0,0,1,.728,1.622,1.88,1.88,0,0,0,.389,1.428l.1.132a1.743,1.743,0,0,1,.4,1.373,4.35,4.35,0,0,0-.022.568.965.965,0,0,0,.118.439.218.218,0,0,0,.206.14l.179.014a2.349,2.349,0,0,1,1.516.605c.113.107.23.209.345.308a3.649,3.649,0,0,0,2.41.86,3.245,3.245,0,0,1,.974.139,3.161,3.161,0,0,0,.8.131,1.72,1.72,0,0,1,1.052.3,3.965,3.965,0,0,1,.424.281,1.511,1.511,0,0,0,.653.248c.322.065.641.143.975.224l1,.238-.029.572a5.644,5.644,0,0,0,.319,1.86l.42,1.407c.18.623.36,1.246.519,1.875a6.2,6.2,0,0,1-.162,3.512,12.974,12.974,0,0,1-.8,1.882c-.186.356-.38.707-.575,1.058l-.414.755c-.161.3-.322.6-.47.909.209-.028.418-.055.625-.1a2.823,2.823,0,0,1,.847-.094.5.5,0,0,0,.289-.069,6.884,6.884,0,0,1,.746-.359,1.4,1.4,0,0,0,.8-.8,5.105,5.105,0,0,0,.448-1.564,10.764,10.764,0,0,0,.034-2.358,2.572,2.572,0,0,1-.006-.3V57.85l1.3,2.484a2.142,2.142,0,0,1,.164.329c.083.249.161.491.232.733a11.993,11.993,0,0,1,.535,3,8.56,8.56,0,0,1-.814,3.9,14.042,14.042,0,0,1-1.106,2.006,7.067,7.067,0,0,0-.618,1.129l.447-.063Zm-.9-.088.006.023.006,0Zm-.014-.161-.659.011.673.147a.387.387,0,0,0-.014-.158m-3.35-5.171v0m9.479-11.693v0Z" transform="translate(0 3.984)" fill="#fff" stroke="#fff" stroke-width="1"/>
          </g>
        </g>
        <g id="Grupo_149932" data-name="Grupo 149932" transform="translate(571.8 4881.003)">
          <g id="Grupo_149925" data-name="Grupo 149925" transform="translate(0 0)" clip-path="url(#clip-path-5)">
            <path id="Trazado_187736" data-name="Trazado 187736" d="M7.756,37.988a.883.883,0,0,0-1.384-1.1L3.647,40.323a.882.882,0,1,0,1.381,1.1Z" transform="translate(1.298 13.731)" fill="#fff" stroke="#fff" stroke-width="1" fill-rule="evenodd"/>
            <path id="Trazado_187737" data-name="Trazado 187737" d="M6.559,26.619A.883.883,0,0,1,5.462,28L2.028,25.275a.883.883,0,0,1,1.1-1.382Z" transform="translate(0.636 8.902)" fill="#fff" stroke="#fff" stroke-width="1" fill-rule="evenodd"/>
            <path id="Trazado_187738" data-name="Trazado 187738" d="M5.138,31.315a.883.883,0,0,1,.2,1.754l-4.355.5a.883.883,0,1,1-.2-1.754Z" transform="translate(0 11.76)" fill="#fff" stroke="#fff" stroke-width="1" fill-rule="evenodd"/>
            <path id="Trazado_187739" data-name="Trazado 187739" d="M59.124,105.821a4.625,4.625,0,0,1-1.288-.164c-.547-.164-.86-.446-.927-.838a.871.871,0,0,1,.381-.857,2.505,2.505,0,0,1,1.01-.382c.747-.161,1.677-.36,2.645-2.977C62.079,97.542,59.924,90.316,59,87.79L56.268,80.02a2.262,2.262,0,0,1-1.081-.459,2.755,2.755,0,0,1-.953-1.986c-.459-2.845-4.486-6.569-6.387-8.19.015,1.208.376,3.1,1.671,7.262.887,2.853.942,4.932.164,6.183a2.122,2.122,0,0,1-1.371,1.023C44.623,85.162,38.045,88.31,28.337,95.7c-.265.2-.448.341-.541.407-.362.257-.556,1.627-.5,2.7l.015.292-.2.212c-2.875,3.062-3.842,3.4-4.53,2.92-.161-.109-.531-.36-.42-1.3-3.169,2.16-4.981.748-5.072.677l-.666-.542.67-.53A25.657,25.657,0,0,0,19.883,97.4a8.4,8.4,0,0,0,1.334-2.6,5.527,5.527,0,0,1,4.072-4.1c2.794-.865,7.943-4.354,11.7-6.9,1.6-1.087,2.985-2.024,4.024-2.66,3.019-1.847,2.145-4.264,1.217-6.82l-.081-.224c-.235-.652-.415-1.3-.589-1.919-.55-1.975-.926-3.119-2.208-3.632a5.027,5.027,0,0,0-3.941.534l-.245.095C26.834,70.6,25.151,68.356,23.937,65.5a3.366,3.366,0,0,0-1.271-1.845c-1.86-1-2.682-3.874-3.409-6.406-.455-1.587-.97-3.384-1.559-3.761-2.158-1.376-7.112-9.28-5.138-15.355,1.7-5.222.759-25.985.582-29.584A30.382,30.382,0,0,1,8.819,7.205C4.713,7.194,3.864,6.531,3.565,6a1.07,1.07,0,0,1,.041-1.113,1.793,1.793,0,0,1,1.568-.746c.473.021.945-.319,2-1.123.444-.338.966-.735,1.6-1.179l.246-.173C10.392.7,11.95-.4,13.551.143c1.23.418,2.176,1.739,2.893,4.037C18,9.174,18.264,23.761,18.209,35.118c-.011,2.175.425,3.619,1.261,4.176a2.05,2.05,0,0,0,1.728.135c14.719-10.186,27.177-7.4,29.449-6.764.816-.546,3.1-1.615,7.071-.1a3.859,3.859,0,0,1,2.311,1.951c.62,1.406.022,2.93-.415,4.044-.084.215-.188.481-.25.68.149.04.323.089.52.146,2.043.574,6.823,1.913,9.283.371,1.735-1.089,3.081-3.1,4.641-5.436a52.911,52.911,0,0,1,4.025-5.46c.378-.433,1.537-1.747,2.711-1.3,1.609.619,1.677,3.974,1.6,8.294-.014.717-.025,1.351-.014,1.824.044,1.847-.981,3.011-1.973,4.136a8.326,8.326,0,0,0-2.235,3.824c-.208.913-.3,1.554-.374,2.037-.264,1.791-.465,1.952-2.9,3.921l-.2.16c-1.856,1.5-2.154,3.281-2.442,5a6.4,6.4,0,0,1-1.226,3.374c-1.625,1.838-13.6,4.681-17.49,5.563.611,1.587,2.242,4.537,4.586,5.474,3.062,1.226,3.222,3.29,3.608,8.278l.129,1.641c.23,2.793,1.589,5.782,2.9,8.672,1.608,3.539,3.125,6.882,2.834,10.048-.418,4.544-2.563,5.474-3.209,5.651a1.279,1.279,0,0,1-1.428-.33.848.848,0,0,1-.144-.333,6.113,6.113,0,0,1-3.443,1.03M57.219,78.615l.193.509,2.881,8.2c.14.381,3.484,9.6,1.942,13.756a6.238,6.238,0,0,1-2.2,3.286,3.973,3.973,0,0,0,2.229-1.128c.615-.659,1.38-1.491,2.065-.942.395.311.338.872.147,1.4.519-.481,1.279-1.59,1.5-4.025.259-2.8-1.187-5.985-2.715-9.354-1.363-3-2.771-6.1-3.019-9.127l-.131-1.648c-.4-5.117-.557-6.232-2.748-7.108-3.207-1.282-5.211-5.4-5.632-7.089l-.171-.684.689-.154c6.168-1.374,16.375-4.028,17.5-5.3a5.392,5.392,0,0,0,.9-2.689,8.45,8.45,0,0,1,2.934-5.845l.2-.16C76,48.728,76,48.728,76.186,47.468c.076-.508.176-1.179.393-2.138A9.573,9.573,0,0,1,79.124,40.9c.927-1.054,1.66-1.885,1.629-3.194-.011-.49,0-1.143.014-1.88.03-1.649.121-6.663-.715-6.987,0,0-.34-.045-1.179.92a51.083,51.083,0,0,0-3.921,5.322c-1.649,2.464-3.072,4.59-5.055,5.838-2.973,1.865-7.98.459-10.385-.215-.341-.1-.611-.173-.79-.212a.985.985,0,0,1-.67-.494c-.278-.523-.044-1.12.282-1.945.367-.938.825-2.1.436-2.985a2.532,2.532,0,0,0-1.541-1.223c-4.112-1.563-5.9.011-5.974.08l-.3.271-.389-.12c-.129-.04-13.268-4.153-28.654,6.53a3.428,3.428,0,0,1-3.191-.157c-1.267-.834-1.9-2.629-1.89-5.337.077-16.148-.51-26.7-1.7-30.524-.568-1.824-1.248-2.881-2.021-3.143-.934-.311-2.19.563-3.295,1.341l-.249.175c-.619.433-1.125.82-1.557,1.149C6.9,4.955,6.145,5.582,5.217,5.516a13.254,13.254,0,0,0,3.724.312h.14l.131.054a28.585,28.585,0,0,0,4.717,1.431l.531.1.029.539c.055,1,1.308,24.677-.62,30.613-1.825,5.615,3.018,12.781,4.568,13.77,1.029.656,1.545,2.457,2.142,4.541.652,2.273,1.391,4.848,2.739,5.574A4.533,4.533,0,0,1,25.2,64.965c.876,2.062,1.78,4.193,9.609,2.872a6.2,6.2,0,0,1,5.053-.57c1.977.79,2.484,2.611,3.024,4.54.162.587.334,1.2.557,1.82l.08.223c.923,2.545,2.186,6.029-1.794,8.463-1.01.62-2.381,1.549-3.97,2.626-4.043,2.74-9.074,6.152-12.066,7.076-2.251.7-2.643,1.769-3.185,3.256a9.741,9.741,0,0,1-1.554,2.988c-.962,1.193-1.652,1.982-2.128,2.493h.023c.841,0,2.259-.415,4.24-2.4l2.775-2.773L24.2,99.134a10.618,10.618,0,0,0-.6,1.6,18.682,18.682,0,0,0,2.311-2.158c-.012-.849.072-2.864,1.087-3.589.085-.061.257-.191.5-.381,9.852-7.5,16.571-10.712,20.472-12.085a.878.878,0,0,0,.574-.479c.29-.519.631-1.856-.344-4.991-1.916-6.159-1.878-7.622-1.6-9.149l.2-1.113.894.692c.294.227,7.2,5.615,7.9,9.914a1.528,1.528,0,0,0,.435,1.076.959.959,0,0,0,.648.2Z" transform="translate(1.288 0)" fill="#fff" stroke="#fff" stroke-width="1"/>
          </g>
        </g>
      </g>
    </g>
  </g>
</svg>
