<svg id="Grupo_149913" data-name="Grupo 149913" xmlns="http://www.w3.org/2000/svg" xmlns:xlink="http://www.w3.org/1999/xlink" width="115.954" height="115.954" viewBox="0 0 115.954 115.954">
  <defs>
    <clipPath id="clip-path">
      <rect id="Rectángulo_44472" data-name="Rectángulo 44472" width="115.954" height="115.954" fill="#12263f"/>
    </clipPath>
  </defs>
  <g id="Grupo_149912" data-name="Grupo 149912" clip-path="url(#clip-path)">
    <path id="Trazado_187708" data-name="Trazado 187708" d="M114.123,0H48.212a1.832,1.832,0,0,0-1.831,1.831V25.776A14.972,14.972,0,0,0,35.33,21.138H32.806a13.22,13.22,0,0,0,3.2-8.742C36.007,5.563,31.08,0,25.022,0S14.036,5.563,14.036,12.4a13.21,13.21,0,0,0,3.2,8.742H14.473A14.651,14.651,0,0,0,0,35.931v18.8A12.124,12.124,0,0,0,10.309,66.689v47.434a1.832,1.832,0,0,0,1.831,1.831H37.9a1.832,1.832,0,0,0,1.831-1.831V62.793h6.647V82.388a1.832,1.832,0,0,0,1.831,1.831h7.465L48.871,113.71a1.828,1.828,0,0,0,1.369,2.2,1.849,1.849,0,0,0,.415.046,1.828,1.828,0,0,0,1.78-1.418l7-30.316h19.9v29.9a1.831,1.831,0,0,0,3.662,0v-29.9h19.9l7,30.316a1.828,1.828,0,0,0,1.78,1.418,1.864,1.864,0,0,0,.415-.046,1.828,1.828,0,0,0,1.369-2.2l-6.806-29.491h7.465a1.832,1.832,0,0,0,1.831-1.831V1.831A1.832,1.832,0,0,0,114.123,0m-1.831,80.557H50.043v-6.1h62.249ZM36.073,112.292h-9.22v-6.908h9.22Zm-22.1-47.248V60.467h22.1v41.255h-9.22V73.168a1.831,1.831,0,1,0-3.662,0v28.554h-9.22Zm0,40.34h9.22v6.908h-9.22ZM39.734,58.636V38.821a1.831,1.831,0,1,0-3.662,0V56.805h-22.1V38.821a1.831,1.831,0,0,0-3.662,0V63.013a8.491,8.491,0,0,1-6.647-8.278v-18.8A10.987,10.987,0,0,1,14.473,24.8H35.33c4.1,0,11.051,2.373,11.051,11.271V50.653a1.832,1.832,0,0,0,1.831,1.831h5.029v6.647H39.734ZM17.7,12.4c0-4.814,3.286-8.734,7.323-8.734s7.323,3.92,7.323,8.734-3.286,8.742-7.323,8.742S17.7,17.215,17.7,12.4M56.9,59.131V52.484h3.169A3.614,3.614,0,0,1,63.76,55.24a3.231,3.231,0,0,1-.727,2.666,3.5,3.5,0,0,1-2.675,1.225Zm-6.86,3.662H60.357a7.154,7.154,0,0,0,5.471-2.522,6.933,6.933,0,0,0,1.545-5.634,7.3,7.3,0,0,0-7.3-5.815H50.043V3.662h62.249V70.793H50.043Z" fill="#12263f"/>
    <path id="Trazado_187709" data-name="Trazado 187709" d="M51.683,4H24.831a1.831,1.831,0,0,0,0,3.662H51.683a1.831,1.831,0,1,0,0-3.662" transform="translate(33.146 5.765)" fill="#12263f"/>
    <path id="Trazado_187710" data-name="Trazado 187710" d="M35.272,11.662a1.831,1.831,0,0,0,0-3.662H32.831a1.831,1.831,0,0,0,0,3.662Z" transform="translate(44.675 11.529)" fill="#12263f"/>
    <path id="Trazado_187711" data-name="Trazado 187711" d="M24.831,11.662H37.036a1.831,1.831,0,0,0,0-3.662H24.831a1.831,1.831,0,0,0,0,3.662" transform="translate(33.146 11.529)" fill="#12263f"/>
    <path id="Trazado_187712" data-name="Trazado 187712" d="M49.6,4H39.831A1.832,1.832,0,0,0,38,5.831V15.6a1.832,1.832,0,0,0,1.831,1.831H49.6A1.832,1.832,0,0,0,51.426,15.6V5.831A1.832,1.832,0,0,0,49.6,4m-1.831,9.765h-6.1v-6.1h6.1Z" transform="translate(54.763 5.765)" fill="#12263f"/>
    <path id="Trazado_187713" data-name="Trazado 187713" d="M45.919,12H28.831a1.831,1.831,0,0,0,0,3.662H45.919a1.831,1.831,0,1,0,0-3.662" transform="translate(38.91 17.294)" fill="#12263f"/>
    <path id="Trazado_187714" data-name="Trazado 187714" d="M24.831,15.662h2.441a1.831,1.831,0,0,0,0-3.662H24.831a1.831,1.831,0,0,0,0,3.662" transform="translate(33.146 17.294)" fill="#12263f"/>
    <path id="Trazado_187715" data-name="Trazado 187715" d="M51.683,16H24.831a1.831,1.831,0,0,0,0,3.662H51.683a1.831,1.831,0,1,0,0-3.662" transform="translate(33.146 23.058)" fill="#12263f"/>
    <path id="Trazado_187716" data-name="Trazado 187716" d="M49.6,12H39.831A1.832,1.832,0,0,0,38,13.831V23.6a1.832,1.832,0,0,0,1.831,1.831H49.6A1.832,1.832,0,0,0,51.426,23.6V13.831A1.832,1.832,0,0,0,49.6,12m-1.831,9.765h-6.1v-6.1h6.1Z" transform="translate(54.763 17.294)" fill="#12263f"/>
    <path id="Trazado_187717" data-name="Trazado 187717" d="M41.4,24H31.97a1.831,1.831,0,1,0,0,3.662H41.4A1.831,1.831,0,1,0,41.4,24" transform="translate(43.434 34.587)" fill="#12263f"/>
    <path id="Trazado_187718" data-name="Trazado 187718" d="M41.4,20H31.97a1.831,1.831,0,1,0,0,3.662H41.4A1.831,1.831,0,1,0,41.4,20" transform="translate(43.434 28.823)" fill="#12263f"/>
    <path id="Trazado_187719" data-name="Trazado 187719" d="M49.6,20H39.831A1.832,1.832,0,0,0,38,21.831V31.6a1.832,1.832,0,0,0,1.831,1.831H49.6A1.832,1.832,0,0,0,51.426,31.6V21.831A1.832,1.832,0,0,0,49.6,20m-1.831,9.765h-6.1v-6.1h6.1Z" transform="translate(54.763 28.823)" fill="#12263f"/>
  </g>
</svg>
