<svg xmlns="http://www.w3.org/2000/svg" xmlns:xlink="http://www.w3.org/1999/xlink" width="418" height="313" viewBox="0 0 418 313">
  <defs>
    <linearGradient id="linear-gradient" x1="0.5" x2="0.5" y2="1" gradientUnits="objectBoundingBox">
      <stop offset="0" stop-color="#4dd0e1"/>
      <stop offset="1" stop-color="#039be5"/>
    </linearGradient>
    <filter id="Trazado_187743" x="0" y="0" width="418" height="313" filterUnits="userSpaceOnUse">
      <feOffset dy="3" input="SourceAlpha"/>
      <feGaussianBlur stdDeviation="3" result="blur"/>
      <feFlood flood-opacity="0.161"/>
      <feComposite operator="in" in2="blur"/>
      <feComposite in="SourceGraphic"/>
    </filter>
    <filter id="Trazado_187744" x="144.157" y="202" width="130.461" height="37.063" filterUnits="userSpaceOnUse">
      <feOffset dy="3" input="SourceAlpha"/>
      <feGaussianBlur stdDeviation="3" result="blur-2"/>
      <feFlood flood-opacity="0.161"/>
      <feComposite operator="in" in2="blur-2"/>
      <feComposite in="SourceGraphic"/>
    </filter>
    <radialGradient id="radial-gradient" cx="0.076" cy="0.019" r="1.465" gradientTransform="translate(0.001)" gradientUnits="objectBoundingBox">
      <stop offset="0" stop-color="#f6f6f7"/>
      <stop offset="0.477" stop-color="#f9f9fa"/>
      <stop offset="0.715" stop-color="#fff"/>
    </radialGradient>
    <clipPath id="clip-path">
      <rect id="Rectángulo_44025" data-name="Rectángulo 44025" width="65.9" height="56.329" fill="none"/>
    </clipPath>
  </defs>
  <g id="Grupo_149951" data-name="Grupo 149951" transform="translate(-800.991 -3429)">
    <g transform="matrix(1, 0, 0, 1, 800.99, 3429)" filter="url(#Trazado_187743)">
      <path id="Trazado_187743-2" data-name="Trazado 187743" d="M15,0H385a15,15,0,0,1,15,15V295H0V15A15,15,0,0,1,15,0Z" transform="translate(9 6)" fill="url(#linear-gradient)"/>
    </g>
    <g transform="matrix(1, 0, 0, 1, 800.99, 3429)" filter="url(#Trazado_187744)">
      <path id="Trazado_187744-2" data-name="Trazado 187744" d="M103.062,14.186a5.193,5.193,0,0,1-.8,2.622,4.833,4.833,0,0,1-2.056,1.763,7,7,0,0,1-3.022.625,5.584,5.584,0,0,1-4.414-1.826,7.54,7.54,0,0,1-1.611-5.156v-.7a8.607,8.607,0,0,1,.728-3.657,5.513,5.513,0,0,1,2.095-2.422,5.844,5.844,0,0,1,3.164-.854,6.129,6.129,0,0,1,4.16,1.362,5.383,5.383,0,0,1,1.787,3.755H99.673a2.547,2.547,0,0,0-.654-1.865,2.691,2.691,0,0,0-1.875-.566,2.048,2.048,0,0,0-1.875.957,6.151,6.151,0,0,0-.625,3.057v1.006a6.806,6.806,0,0,0,.571,3.252,2.091,2.091,0,0,0,1.968.977,2.632,2.632,0,0,0,1.807-.557,2.363,2.363,0,0,0,.664-1.768Zm1.055-.566a6.236,6.236,0,0,1,.615-2.817A4.4,4.4,0,0,1,106.5,8.9a5.323,5.323,0,0,1,2.705-.664,4.858,4.858,0,0,1,3.74,1.47,5.64,5.64,0,0,1,1.367,4v.117a5.472,5.472,0,0,1-1.372,3.921,4.871,4.871,0,0,1-3.716,1.45,4.927,4.927,0,0,1-3.623-1.353,5.29,5.29,0,0,1-1.475-3.667Zm3.291.205a3.932,3.932,0,0,0,.459,2.148,1.529,1.529,0,0,0,1.357.684q1.758,0,1.8-2.705v-.332q0-2.842-1.816-2.842-1.65,0-1.787,2.451Zm7.939-.205a6.236,6.236,0,0,1,.615-2.817,4.4,4.4,0,0,1,1.768-1.9,5.323,5.323,0,0,1,2.705-.664,4.858,4.858,0,0,1,3.74,1.47,5.64,5.64,0,0,1,1.367,4v.117a5.472,5.472,0,0,1-1.372,3.921,4.871,4.871,0,0,1-3.716,1.45,4.927,4.927,0,0,1-3.623-1.353,5.29,5.29,0,0,1-1.475-3.667Zm3.291.205a3.932,3.932,0,0,0,.459,2.148,1.529,1.529,0,0,0,1.357.684q1.758,0,1.8-2.705v-.332q0-2.842-1.816-2.842-1.65,0-1.787,2.451Zm18.164-.029a6.372,6.372,0,0,1-1.108,3.931A3.554,3.554,0,0,1,132.7,19.2a3.046,3.046,0,0,1-2.393-1.064v4.932h-3.291V8.434h3.076l.1.977a3.046,3.046,0,0,1,2.49-1.172,3.582,3.582,0,0,1,3.037,1.44,6.45,6.45,0,0,1,1.084,3.96Zm-3.291-.205q0-2.812-1.641-2.812a1.549,1.549,0,0,0-1.562.84v4.16a1.6,1.6,0,0,0,1.582.879q1.572,0,1.621-2.715Zm9.854,5.605a5.432,5.432,0,0,1-3.936-1.45,5.008,5.008,0,0,1-1.5-3.774V13.7a6.489,6.489,0,0,1,.6-2.861,4.395,4.395,0,0,1,1.753-1.919,5.292,5.292,0,0,1,2.734-.679,4.574,4.574,0,0,1,3.516,1.382,5.43,5.43,0,0,1,1.289,3.853v1.279h-6.543a2.372,2.372,0,0,0,.771,1.4,2.3,2.3,0,0,0,1.543.508,2.958,2.958,0,0,0,2.441-1.094l1.5,1.777a4.2,4.2,0,0,1-1.743,1.353A5.891,5.891,0,0,1,143.364,19.2Zm-.371-8.418q-1.445,0-1.719,1.914h3.32v-.254a1.63,1.63,0,0,0-.4-1.226A1.593,1.593,0,0,0,142.993,10.777Zm12.539.635-1.084-.078a1.947,1.947,0,0,0-1.992.977V19h-3.291V8.434h3.086l.107,1.357a2.548,2.548,0,0,1,2.314-1.553,3.209,3.209,0,0,1,.918.117ZM162.378,19a3.716,3.716,0,0,1-.312-.947,3.06,3.06,0,0,1-2.539,1.143,3.749,3.749,0,0,1-2.539-.9,2.875,2.875,0,0,1-1.045-2.271,2.955,2.955,0,0,1,1.27-2.6,6.468,6.468,0,0,1,3.691-.879h1.016v-.559q0-1.462-1.26-1.462a1.03,1.03,0,0,0-1.172,1.158H156.2a2.95,2.95,0,0,1,1.3-2.487,5.479,5.479,0,0,1,3.325-.956,4.8,4.8,0,0,1,3.193.986,3.429,3.429,0,0,1,1.2,2.705v4.678a4.79,4.79,0,0,0,.449,2.227V19Zm-2.061-2.148a1.836,1.836,0,0,0,1.021-.264,1.653,1.653,0,0,0,.581-.6V14.3h-.957q-1.719,0-1.719,1.543a.942.942,0,0,0,.3.728A1.1,1.1,0,0,0,160.317,16.852Zm11.191-.2a1.464,1.464,0,0,0,1.074-.376,1.379,1.379,0,0,0,.371-1.05h3.086a3.653,3.653,0,0,1-1.245,2.852,4.631,4.631,0,0,1-3.208,1.113,4.689,4.689,0,0,1-3.633-1.445,5.7,5.7,0,0,1-1.328-4v-.137a6.436,6.436,0,0,1,.591-2.827,4.3,4.3,0,0,1,1.7-1.885,5.081,5.081,0,0,1,2.637-.659,4.573,4.573,0,0,1,3.271,1.143,4.053,4.053,0,0,1,1.211,3.1h-3.086a1.807,1.807,0,0,0-.4-1.26,1.382,1.382,0,0,0-1.074-.439q-1.279,0-1.494,1.631a11.507,11.507,0,0,0-.068,1.426,4.52,4.52,0,0,0,.381,2.207A1.319,1.319,0,0,0,171.509,16.656ZM180.9,19h-3.3V8.434h3.3Zm-3.5-13.3a1.482,1.482,0,0,1,.508-1.159,2.149,2.149,0,0,1,2.637,0A1.482,1.482,0,0,1,181.06,5.7a1.482,1.482,0,0,1-.508,1.159,2.149,2.149,0,0,1-2.637,0A1.482,1.482,0,0,1,177.407,5.7Zm5.107,7.92a6.236,6.236,0,0,1,.615-2.817A4.4,4.4,0,0,1,184.9,8.9a5.323,5.323,0,0,1,2.705-.664,4.858,4.858,0,0,1,3.74,1.47,5.64,5.64,0,0,1,1.367,4v.117a5.472,5.472,0,0,1-1.372,3.921,4.871,4.871,0,0,1-3.716,1.45A4.927,4.927,0,0,1,184,17.843a5.29,5.29,0,0,1-1.475-3.667Zm3.291.205a3.932,3.932,0,0,0,.459,2.148,1.529,1.529,0,0,0,1.357.684q1.758,0,1.8-2.705v-.332q0-2.842-1.816-2.842-1.65,0-1.787,2.451ZM188.052,4h3.477l-2.715,3.066-2.686,0Zm9.131,4.434.107,1.24a3.583,3.583,0,0,1,3.018-1.436,3.015,3.015,0,0,1,2.466.986,4.7,4.7,0,0,1,.845,2.969V19h-3.3V12.33A1.783,1.783,0,0,0,200,11.153a1.491,1.491,0,0,0-1.172-.376,1.569,1.569,0,0,0-1.436.762V19H194.1V8.434Z" transform="translate(62 204)" fill="#fff"/>
    </g>
    <path id="Trazado_187745" data-name="Trazado 187745" d="M0,0H400V6H0Z" transform="translate(809.991 3724)" fill="#004d91"/>
    <g id="Grupo_149915" data-name="Grupo 149915" transform="translate(-262 2382)">
      <g id="Grupo_148731" data-name="Grupo 148731" transform="translate(1214.991 1116)">
        <g id="Grupo_18423" data-name="Grupo 18423" transform="translate(0 0)">
          <g id="Grupo_18421" data-name="Grupo 18421">
            <g id="Grupo_18420" data-name="Grupo 18420">
              <g id="Grupo_18419" data-name="Grupo 18419">
                <path id="Trazado_40936" data-name="Trazado 40936" d="M309.259,2203.037a57.318,57.318,0,1,1-57.317-57.316A57.317,57.317,0,0,1,309.259,2203.037Z" transform="translate(-194.623 -2145.721)" fill="#fff"/>
              </g>
            </g>
          </g>
          <path id="Trazado_40937" data-name="Trazado 40937" d="M308.648,2202.372a57.316,57.316,0,1,0-57.317,57.319A57.091,57.091,0,0,0,308.648,2202.372Z" transform="translate(-194.013 -2145.056)" fill="url(#radial-gradient)"/>
          <path id="Trazado_40938" data-name="Trazado 40938" d="M289.672,2196.986a43.75,43.75,0,1,0-43.75,43.75A43.587,43.587,0,0,0,289.672,2196.986Z" transform="translate(-188.43 -2139.479)" fill="none" stroke="#00223d" stroke-miterlimit="10" stroke-width="4"/>
          <g id="Grupo_18422" data-name="Grupo 18422" transform="translate(10.154 32.18)">
            <path id="Trazado_40939" data-name="Trazado 40939" d="M299.231,2164.488a57.325,57.325,0,0,1-98.686,57.081,57.143,57.143,0,0,0,98.686-57.081Z" transform="translate(-200.545 -2164.488)" fill="#eceef0"/>
          </g>
        </g>
      </g>
      <g id="Grupo_148746" data-name="Grupo 148746" transform="translate(1238.991 1145)">
        <g id="Grupo_148745" data-name="Grupo 148745" transform="translate(0 0)" clip-path="url(#clip-path)">
          <path id="Trazado_187132" data-name="Trazado 187132" d="M30.848,45.9a.692.692,0,0,1-.665-.5l-1.117-3.945a11.981,11.981,0,0,0-6.5-7.618L19.8,32.545a6.879,6.879,0,0,1-3.727-4.366l-1.34-4.728a.738.738,0,0,1-.021-.279l.106-.8a3.388,3.388,0,0,0-1.571-3.321l-.068-.042a.69.69,0,1,1,.725-1.174l.069.042a4.771,4.771,0,0,1,2.215,4.677l-.087.654,1.3,4.59a5.491,5.491,0,0,0,2.979,3.49l2.769,1.285A13.367,13.367,0,0,1,30.4,41.072l1.116,3.946a.691.691,0,0,1-.476.852.715.715,0,0,1-.188.026" transform="translate(-0.545 -0.752)" fill="#344154"/>
          <path id="Trazado_187133" data-name="Trazado 187133" d="M19.086,50.457a.69.69,0,0,1-.611-.369,6.277,6.277,0,0,0-4.286-3.243q-.322-.066-.627-.143A12.752,12.752,0,0,1,5.713,40.62,66.232,66.232,0,0,0,.16,32.753a.69.69,0,0,1,.031-.917,4.368,4.368,0,0,1,3.2-1.208c1.708.084,3.384,1.163,4.98,3.209a8.876,8.876,0,0,0,7.655,3.432c.182-.016.364-.037.55-.062a.69.69,0,0,1,.188,1.367q-.315.043-.619.07a10.129,10.129,0,0,1-8.861-3.958c-1.331-1.7-2.656-2.606-3.938-2.678a2.949,2.949,0,0,0-1.672.418,64.41,64.41,0,0,1,5.236,7.506A11.367,11.367,0,0,0,13.9,45.363q.279.07.572.13A7.651,7.651,0,0,1,19.7,49.444a.69.69,0,0,1-.288.933.682.682,0,0,1-.322.08" transform="translate(0 -1.299)" fill="#344154"/>
          <path id="Trazado_187134" data-name="Trazado 187134" d="M3.787,31.214a.691.691,0,0,1-.674-.543L1.734,24.365A.69.69,0,0,1,1.752,24L5.8,11.569a.691.691,0,0,1,.824-.456c1.018.255,2.8,1.611,2.237,4.914L7.056,24l1.215,4.954a.69.69,0,0,1-1.341.329L5.676,24.167a.7.7,0,0,1,0-.318L7.51,15.76c.291-1.721-.209-2.568-.653-2.97L3.123,24.253l1.34,6.124a.69.69,0,0,1-.528.822.7.7,0,0,1-.147.016" transform="translate(-0.073 -0.47)" fill="#344154"/>
          <path id="Trazado_187135" data-name="Trazado 187135" d="M10.907,28.982a.69.69,0,0,1-.664-.5L8.9,23.728a.687.687,0,0,1-.014-.318l1.685-8.784c.576-2.278-.262-3.43-.922-3.958l-.824,2.545a.69.69,0,1,1-1.313-.425L8.6,9.431a.688.688,0,0,1,.354-.408A.7.7,0,0,1,9.493,9c1.242.457,3.348,2.284,2.424,5.93L10.271,23.51l1.3,4.593a.691.691,0,0,1-.476.852.716.716,0,0,1-.189.026" transform="translate(-0.317 -0.38)" fill="#344154"/>
          <path id="Trazado_187136" data-name="Trazado 187136" d="M13.956,28.5a.69.69,0,0,1-.663-.5L11.9,23.168a.687.687,0,0,1-.015-.318l.975-5.2a3.9,3.9,0,0,0-1.519-3.84l-.154-.113a.69.69,0,1,1,.818-1.111l.153.112A5.282,5.282,0,0,1,14.218,17.9l-.944,5.041,1.345,4.682a.689.689,0,0,1-.473.853.654.654,0,0,1-.191.027" transform="translate(-0.463 -0.528)" fill="#344154"/>
          <path id="Trazado_187137" data-name="Trazado 187137" d="M20.167,58.268a.69.69,0,0,1-.641-.434L16.978,51.47a.685.685,0,0,1,.011-.539.693.693,0,0,1,.4-.367l13.4-4.823a.689.689,0,0,1,.924.649v3.226a.69.69,0,1,1-1.381,0V47.372l-11.8,4.25,2.046,5.11L29.437,54a.69.69,0,1,1,.406,1.319L20.37,58.238a.71.71,0,0,1-.2.031" transform="translate(-0.718 -1.939)" fill="#344154"/>
          <path id="Trazado_187138" data-name="Trazado 187138" d="M18.768,54.8a.69.69,0,0,1-.23-1.341l12.3-4.348a.69.69,0,1,1,.461,1.3L19,54.758a.664.664,0,0,1-.23.04" transform="translate(-0.767 -2.082)" fill="#344154"/>
          <path id="Trazado_187139" data-name="Trazado 187139" d="M37.144,45.9a.716.716,0,0,1-.189-.026.691.691,0,0,1-.476-.852L37.6,41.072a13.364,13.364,0,0,1,7.244-8.495l2.77-1.285A5.5,5.5,0,0,0,50.59,27.8l1.3-4.59-.087-.655a4.771,4.771,0,0,1,2.214-4.676l.067-.041a.69.69,0,1,1,.73,1.171l-.068.043a3.388,3.388,0,0,0-1.574,3.322l.105.8a.68.68,0,0,1-.02.278l-1.34,4.728a6.878,6.878,0,0,1-3.727,4.367L45.422,33.83a11.984,11.984,0,0,0-6.5,7.618l-1.117,3.945a.69.69,0,0,1-.664.5" transform="translate(-1.547 -0.752)" fill="#344154"/>
          <path id="Trazado_187140" data-name="Trazado 187140" d="M48.858,50.457a.682.682,0,0,1-.322-.08.689.689,0,0,1-.288-.932,7.646,7.646,0,0,1,5.229-3.952c.2-.04.385-.083.571-.13a11.374,11.374,0,0,0,6.987-5.431,64.543,64.543,0,0,1,5.235-7.507,2.957,2.957,0,0,0-1.672-.418c-1.282.073-2.607.974-3.938,2.678A10.137,10.137,0,0,1,51.8,38.642c-.2-.017-.407-.04-.616-.069a.69.69,0,1,1,.187-1.367c.186.025.369.046.549.061a8.749,8.749,0,0,0,7.657-3.431c1.6-2.045,3.272-3.125,4.979-3.209a4.353,4.353,0,0,1,3.2,1.208.689.689,0,0,1,.031.917,66.155,66.155,0,0,0-5.552,7.867A12.76,12.76,0,0,1,54.383,46.7c-.2.051-.413.1-.627.143a6.272,6.272,0,0,0-4.286,3.243.69.69,0,0,1-.611.369" transform="translate(-2.044 -1.299)" fill="#344154"/>
          <path id="Trazado_187141" data-name="Trazado 187141" d="M64.712,31.214a.7.7,0,0,1-.147-.016.69.69,0,0,1-.528-.822l1.34-6.124L61.641,12.785c-.447.4-.942,1.256-.645,3.013l1.831,8.051a.686.686,0,0,1,0,.318L61.57,29.28a.691.691,0,0,1-1.342-.329L61.444,24l-1.8-7.931c-.565-3.342,1.212-4.7,2.23-4.953a.69.69,0,0,1,.824.455L66.746,24a.68.68,0,0,1,.018.361l-1.379,6.307a.691.691,0,0,1-.674.543" transform="translate(-2.526 -0.47)" fill="#344154"/>
          <path id="Trazado_187142" data-name="Trazado 187142" d="M57.7,28.982a.716.716,0,0,1-.189-.026.691.691,0,0,1-.476-.852l1.3-4.593-1.654-8.623C55.772,11.28,57.877,9.453,59.119,9a.689.689,0,0,1,.894.435L61.1,12.789a.69.69,0,0,1-1.314.425l-.825-2.547c-.658.524-1.5,1.667-.93,3.92l1.694,8.823a.7.7,0,0,1-.013.318l-1.345,4.751a.69.69,0,0,1-.664.5" transform="translate(-2.396 -0.38)" fill="#344154"/>
          <path id="Trazado_187143" data-name="Trazado 187143" d="M54.7,28.5a.654.654,0,0,1-.191-.027.689.689,0,0,1-.473-.853l1.344-4.682L54.435,17.9a5.283,5.283,0,0,1,2.06-5.207l.153-.112a.69.69,0,1,1,.816,1.113l-.153.112a3.9,3.9,0,0,0-1.518,3.84l.974,5.2a.682.682,0,0,1-.015.317L55.361,28a.69.69,0,0,1-.663.5" transform="translate(-2.291 -0.528)" fill="#344154"/>
          <path id="Trazado_187144" data-name="Trazado 187144" d="M48,58.268a.678.678,0,0,1-.2-.031l-9.472-2.916A.69.69,0,1,1,38.728,54l8.865,2.728,2.047-5.11-11.8-4.25v2.245a.69.69,0,1,1-1.381,0V46.39a.689.689,0,0,1,.924-.649l13.4,4.823a.692.692,0,0,1,.407.907l-2.55,6.363a.69.69,0,0,1-.641.434" transform="translate(-1.547 -1.939)" fill="#344154"/>
          <path id="Trazado_187145" data-name="Trazado 187145" d="M49.445,54.8a.664.664,0,0,1-.23-.04l-12.3-4.347a.69.69,0,1,1,.46-1.3l12.3,4.348a.69.69,0,0,1-.23,1.341" transform="translate(-1.547 -2.082)" fill="#344154"/>
          <path id="Trazado_187146" data-name="Trazado 187146" d="M39.826,32.8a.691.691,0,0,1-.69-.69V25.417a.69.69,0,1,1,1.381,0v6.694a.691.691,0,0,1-.69.69" transform="translate(-1.66 -1.049)" fill="#344154"/>
          <path id="Trazado_187147" data-name="Trazado 187147" d="M28.783,32.8a.691.691,0,0,1-.69-.69V25.417a.69.69,0,0,1,1.381,0v6.694a.691.691,0,0,1-.69.69" transform="translate(-1.192 -1.049)" fill="#344154"/>
          <path id="Trazado_187148" data-name="Trazado 187148" d="M34.162,11.2a5.6,5.6,0,1,1,5.6-5.6,5.606,5.606,0,0,1-5.6,5.6m0-9.818A4.219,4.219,0,1,0,38.38,5.6a4.224,4.224,0,0,0-4.218-4.219" transform="translate(-1.212 0)" fill="#344154"/>
          <path id="Trazado_187149" data-name="Trazado 187149" d="M24.621,30.408a.691.691,0,0,1-.69-.69v-12.4a3.888,3.888,0,0,1,3.883-3.883h12.3A3.887,3.887,0,0,1,44,17.316v11.2a.69.69,0,1,1-1.38,0v-11.2a2.506,2.506,0,0,0-2.5-2.5h-12.3a2.5,2.5,0,0,0-2.5,2.5v12.4a.691.691,0,0,1-.69.69" transform="translate(-1.015 -0.57)" fill="#344154"/>
          <path id="Trazado_187150" data-name="Trazado 187150" d="M40.27,17.037h-12.3a.432.432,0,0,0-.432.432v4.348h0a8.041,8.041,0,0,1,5.053-1.786h3.058A8.041,8.041,0,0,1,40.7,21.816h0V17.469a.432.432,0,0,0-.432-.432" transform="translate(-1.168 -0.723)" fill="#ffc524"/>
        </g>
      </g>
    </g>
  </g>
</svg>
