<svg id="Group_127938" data-name="Group 127938" xmlns="http://www.w3.org/2000/svg" xmlns:xlink="http://www.w3.org/1999/xlink" width="112.475" height="90" viewBox="0 0 112.475 90">
  <defs>
    <clipPath id="clip-path">
      <rect id="Rectangle_37033" data-name="Rectangle 37033" width="112.475" height="90" fill="#ff6b00"/>
    </clipPath>
  </defs>
  <g id="Group_120516" data-name="Group 120516" clip-path="url(#clip-path)">
    <path id="Path_181717" data-name="Path 181717" d="M56.235,90q-21.38,0-42.758-.005A13.044,13.044,0,0,1,.39,79.877a14.64,14.64,0,0,1-.371-3.36Q-.012,45,.008,13.479A13.093,13.093,0,0,1,13.477.01q42.759-.019,85.516,0a13.083,13.083,0,0,1,13.468,13.47q.027,31.52,0,63.038A13.1,13.1,0,0,1,98.992,89.99q-21.378.029-42.757.006M3.752,18.725v1.428q0,27.942,0,55.884c0,6.331,3.881,10.208,10.215,10.209H98.535c6.324,0,10.183-3.882,10.183-10.242q0-30.988,0-61.975c0-6.43-3.841-10.275-10.265-10.275H14c-.469,0-.938-.006-1.4.017a9.46,9.46,0,0,0-8.664,11.28H104.91v3.673Z" fill="#ff6b00"/>
    <path id="Path_181718" data-name="Path 181718" d="M15,56.249c0-1.257-.008-2.382,0-3.507a5.615,5.615,0,0,1,5.916-5.864q15.93-.013,31.861,0h1.492V41.25c-1.485,0-3-.092-4.5.017-4.465.325-7.048-2.991-6.66-6.555a8.817,8.817,0,0,0,0-.883H33.74c0,.631.014,1.243,0,1.855a5.6,5.6,0,0,1-5.514,5.553q-3.864.071-7.73,0a5.56,5.56,0,0,1-5.48-5.458c-.053-2.577-.046-5.156,0-7.733a5.574,5.574,0,0,1,5.527-5.533c2.5-.042,5-.029,7.5,0a5.605,5.605,0,0,1,5.707,5.72c.008.541,0,1.082,0,1.7H43.12c0-.676-.02-1.329,0-1.981a5.553,5.553,0,0,1,5.4-5.42q7.729-.09,15.461,0a5.541,5.541,0,0,1,5.362,5.333c.031.658,0,1.319,0,2.06H78.73c0-.617-.012-1.229,0-1.842a5.593,5.593,0,0,1,5.5-5.563q3.864-.071,7.731,0a5.553,5.553,0,0,1,5.489,5.447q.084,3.922,0,7.849a5.554,5.554,0,0,1-5.509,5.427c-2.537.047-5.076.041-7.614,0a5.6,5.6,0,0,1-5.6-5.589c-.013-.582,0-1.163,0-1.822H69.356c0,.394,0,.771,0,1.149-.016,4.052-2.255,6.267-6.336,6.271H58.177v5.624h1.316q15.871,0,31.743,0c3.979,0,6.23,2.26,6.236,6.251,0,1.005,0,2.01,0,3.127.767,0,1.421-.021,2.074,0a5.549,5.549,0,0,1,5.4,5.416q.089,7.674,0,15.348a5.532,5.532,0,0,1-5.473,5.46q-3.864.076-7.73,0a5.554,5.554,0,0,1-5.508-5.551q-.06-7.556,0-15.113a5.582,5.582,0,0,1,5.616-5.568c.579-.011,1.157,0,1.854,0,0-1.364.056-2.642-.018-3.913a1.8,1.8,0,0,0-2.007-1.7c-6.754-.015-13.508-.007-20.358-.007v5.625c.614,0,1.262-.017,1.909,0a5.562,5.562,0,0,1,5.474,5.466q.078,7.674,0,15.348a5.513,5.513,0,0,1-5.4,5.409c-2.615.062-5.233.057-7.848,0A5.536,5.536,0,0,1,60,77q-.073-7.615,0-15.231a5.576,5.576,0,0,1,5.543-5.52c.585-.015,1.17,0,1.939,0V50.7H45.054v5.546c.543,0,1.109-.006,1.675,0a5.593,5.593,0,0,1,5.748,5.675q.046,7.44,0,14.879a5.581,5.581,0,0,1-5.735,5.687q-3.63.035-7.262,0a5.6,5.6,0,0,1-5.732-5.809q-.029-7.265,0-14.528a5.621,5.621,0,0,1,5.878-5.9c.5,0,1,0,1.616,0V50.624H40.079q-9.37,0-18.742,0c-2,0-2.584.577-2.589,2.563,0,.971,0,1.941,0,3.064.721,0,1.37-.018,2.019,0a5.564,5.564,0,0,1,5.459,5.48q.077,7.615,0,15.231a5.548,5.548,0,0,1-5.539,5.519q-3.806.064-7.613,0a5.568,5.568,0,0,1-5.565-5.615c-.034-4.92-.022-9.841-.007-14.762a5.619,5.619,0,0,1,5.921-5.86c.466,0,.932,0,1.573,0m41.262-30c-2.382,0-4.763-.011-7.145,0-1.549.009-2.236.676-2.247,2.2q-.027,3.4,0,6.795c.01,1.585.69,2.248,2.312,2.251q7.028.013,14.056,0c1.7,0,2.36-.652,2.369-2.316q.016-3.281,0-6.561c-.007-1.732-.658-2.363-2.433-2.368-2.3-.006-4.607,0-6.911,0M22.5,69.486c0-2.421.012-4.843,0-7.264-.011-1.53-.693-2.209-2.225-2.22q-3.4-.022-6.794,0c-1.532.01-2.215.688-2.218,2.223q-.018,7.147,0,14.294c0,1.53.691,2.211,2.222,2.222q3.4.024,6.794,0c1.527-.011,2.21-.695,2.221-2.226.016-2.343,0-4.687,0-7.03m15-.231c0,2.421-.012,4.842,0,7.264.01,1.531.691,2.212,2.222,2.223q3.4.024,6.793,0c1.528-.011,2.218-.695,2.222-2.225q.018-7.146,0-14.293c0-1.531-.692-2.211-2.223-2.222q-3.4-.022-6.794,0c-1.533.01-2.21.688-2.22,2.222-.016,2.343,0,4.686,0,7.03m37.487.117c0-2.382.012-4.764,0-7.147-.01-1.531-.692-2.212-2.222-2.222q-3.4-.024-6.793,0c-1.534.01-2.218.687-2.222,2.22q-.018,7.147,0,14.294c0,1.532.69,2.213,2.219,2.225,2.226.016,4.452.012,6.677,0,1.68-.008,2.335-.663,2.343-2.342.01-2.343,0-4.687,0-7.03m15-.075c0,2.383-.009,4.765,0,7.147.008,1.616.67,2.289,2.265,2.3q3.339.02,6.677,0c1.614-.009,2.294-.671,2.3-2.268q.016-7.089,0-14.177c0-1.617-.669-2.287-2.267-2.3q-3.339-.021-6.677,0c-1.618.009-2.286.666-2.3,2.267-.014,2.343,0,4.686,0,7.029M18.75,31.876c0,1.21-.027,2.422.008,3.631a1.84,1.84,0,0,0,1.982,1.981q3.63.05,7.262,0a1.833,1.833,0,0,0,1.98-1.982q.048-3.632,0-7.264A1.83,1.83,0,0,0,28,26.263q-3.631-.047-7.262,0a1.838,1.838,0,0,0-1.981,1.981c-.034,1.21-.007,2.421-.007,3.632m74.971,0c0-1.211.027-2.422-.008-3.632a1.841,1.841,0,0,0-1.981-1.981q-3.632-.047-7.262,0a1.827,1.827,0,0,0-1.981,1.979q-.048,3.631,0,7.263a1.829,1.829,0,0,0,1.978,1.983q3.631.05,7.262,0a1.843,1.843,0,0,0,1.984-1.98c.035-1.21.008-2.421.008-3.632" fill="#ff6b00"/>
    <rect id="Rectangle_37029" data-name="Rectangle 37029" width="26.093" height="3.609" transform="translate(33.838 7.584)" fill="#ff6b00"/>
    <rect id="Rectangle_37030" data-name="Rectangle 37030" width="3.638" height="3.618" transform="translate(11.316 7.559)" fill="#ff6b00"/>
    <rect id="Rectangle_37031" data-name="Rectangle 37031" width="3.595" height="3.646" transform="translate(18.835 7.551)" fill="#ff6b00"/>
    <rect id="Rectangle_37032" data-name="Rectangle 37032" width="3.645" height="3.583" transform="translate(26.307 7.598)" fill="#ff6b00"/>
  </g>
</svg>
